<svg width="110" height="138" viewBox="0 0 110 138" fill="none" xmlns="http://www.w3.org/2000/svg">
<path d="M38.7956 82.6562L60.3922 94.943L38.1325 132.969L33.4185 116.437L16.5359 120.682L38.7956 82.6562Z" fill="#25AF3D"/>
<path d="M71.5733 82.6562L50.3268 94.943L72.2254 132.969L76.8613 116.437L93.4641 120.682L71.5733 82.6562Z" fill="#25AF3D"/>
<path d="M40.3756 102.182C32.1132 102.182 22.3966 96.5791 18.2654 89.4243L3.64646 64.1182C-0.484734 56.9634 -0.484734 45.7578 3.64646 38.603L18.2654 13.297C22.3966 6.15316 32.1132 0.550385 40.3756 0.550385H69.6134C77.8868 0.550385 87.5924 6.15316 91.7236 13.308L106.343 38.614C110.474 45.7689 110.474 56.9744 106.343 64.1292L91.7236 89.4353C87.5924 96.5901 77.8758 102.193 69.6134 102.193H40.3756V102.182Z" fill="white"/>
<path d="M40.09 97.0863C33.5021 97.0863 25.416 92.4192 22.1221 86.7283L7.50314 61.4223C4.2092 55.7204 4.2092 46.3971 7.50314 40.6953L22.1221 15.3892C25.416 9.68739 33.5021 5.03125 40.09 5.03125H69.3279C75.9158 5.03125 84.0019 9.6984 87.2958 15.3892L101.915 40.6953C105.209 46.3971 105.209 55.7204 101.915 61.4223L87.2958 86.7283C84.0019 92.4302 75.9158 97.0863 69.3279 97.0863H40.09Z" fill="#25AF3D"/>
<path d="M86.634 51.0312C86.634 53.7299 83.28 55.9542 82.6081 58.442C81.9149 61.0142 83.6693 64.5984 82.3522 66.849C81.0138 69.1366 76.988 69.4106 75.111 71.266C73.2341 73.1213 72.9568 77.1008 70.6426 78.4238C68.3657 79.7257 64.7398 77.9916 62.1377 78.6768C59.6208 79.3409 57.3706 82.6562 54.6405 82.6562C51.9104 82.6562 49.6602 79.3409 47.1434 78.6768C44.5413 77.9916 40.9153 79.7257 38.6385 78.4238C36.3243 77.1008 36.047 73.1213 34.17 71.266C32.2931 69.4106 28.2672 69.1366 26.9288 66.849C25.6118 64.5984 27.3661 61.0142 26.6729 58.442C26.001 55.9542 22.6471 53.7299 22.6471 51.0312C22.6471 48.3326 26.001 46.1083 26.6729 43.6205C27.3661 41.0483 25.6118 37.4641 26.9288 35.2135C28.2672 32.9259 32.2931 32.6519 34.17 30.7965C36.047 28.9412 36.3243 24.9617 38.6385 23.6387C40.9153 22.3368 44.5413 24.0709 47.1434 23.3857C49.6602 22.7216 51.9104 19.4062 54.6405 19.4062C57.3706 19.4062 59.6208 22.7216 62.1377 23.3857C64.7398 24.0709 68.3657 22.3368 70.6426 23.6387C72.9568 24.9617 73.2341 28.9412 75.111 30.7965C76.988 32.6519 81.0138 32.9259 82.3522 35.2135C83.6693 37.4641 81.9149 41.0483 82.6081 43.6205C83.28 46.1083 86.634 48.3326 86.634 51.0312Z" fill="white"/>
<path d="M65.0592 40.4454L51.3398 54.1173L44.2278 47.0359C43.4861 46.2972 42.4803 45.8822 41.4317 45.8822C40.383 45.8822 39.3773 46.2972 38.6355 47.0359C37.8942 47.7751 37.4778 48.7774 37.4778 49.8224C37.4778 50.8674 37.8942 51.8697 38.6355 52.6089L48.6127 62.5516C49.3347 63.2702 50.3134 63.6739 51.3338 63.6739C52.3542 63.6739 53.3329 63.2702 54.0549 62.5516L70.6455 46.0183C71.3868 45.2792 71.8032 44.2769 71.8032 43.2318C71.8032 42.1868 71.3868 41.1845 70.6455 40.4454C70.2788 40.0796 69.8434 39.7895 69.3641 39.5915C68.8849 39.3936 68.3712 39.2917 67.8524 39.2917C67.3336 39.2917 66.8198 39.3936 66.3406 39.5915C65.8613 39.7895 65.4259 40.0796 65.0592 40.4454Z" fill="#25AF3D"/>
</svg>
