<svg fill="none" height="142" viewBox="0 0 142 142" width="142" xmlns="http://www.w3.org/2000/svg"><path d="m141.312 71c0 6-7.371 10.9453-8.847 16.4766-1.524 5.7187 2.332 13.6874-.563 18.6914-2.941 5.086-11.789 5.695-15.914 9.82s-4.734 12.973-9.82 15.914c-5.004 2.895-12.9727-.961-18.6914.563-5.5313 1.476-10.4766 8.847-16.4766 8.847s-10.9453-7.371-16.4766-8.847c-5.7187-1.524-13.6875 2.332-18.6914-.563-5.0859-2.941-5.6953-11.789-9.8203-15.914s-12.9726-4.734-15.914-9.82c-2.89458-5.004.9609-12.9727-.56254-18.6914-1.47657-5.5313-8.84766-10.4766-8.84766-16.4766s7.37109-10.9453 8.84766-16.4766c1.52344-5.7187-2.33204-13.6875.56254-18.6914 2.9414-5.0859 11.789-5.6953 15.914-9.8203s4.7344-12.9726 9.8203-15.914c5.0039-2.89458 12.9727.9609 18.6914-.56254 5.5313-1.47657 10.4766-8.84766 16.4766-8.84766s10.9453 7.37109 16.4766 8.84766c5.7187 1.52344 13.6874-2.33204 18.6914.56254 5.086 2.9414 5.695 11.789 9.82 15.914s12.973 4.7344 15.914 9.8203c2.895 5.0039-.961 12.9727.563 18.6914 1.476 5.5313 8.847 10.4766 8.847 16.4766z" fill="#fd0000"/><path d="m64.4437 76.8851-1.9073-28.4743c-.3576-5.5482-.5364-9.531-.5364-11.9484 0-3.2893.8543-5.8455 2.5629-7.6685 1.7484-1.8626 4.0331-2.7939 6.8543-2.7939 3.4172 0 5.702 1.1889 6.8543 3.5667 1.1523 2.3382 1.7285 5.7266 1.7285 10.1651 0 2.6156-.1391 5.2708-.4172 7.9657l-2.5629 29.3065c-.2782 3.4874-.8742 6.1624-1.7881 8.0251-.9139 1.8626-2.4239 2.7939-4.5298 2.7939-2.1457 0-3.6358-.8917-4.4702-2.675-.8344-1.823-1.4305-4.5773-1.7881-8.2629zm6.6159 39.1149c-2.4238 0-4.5497-.773-6.3775-2.318-1.7881-1.586-2.6821-3.785-2.6821-6.599 0-2.457.8543-4.537 2.5629-6.242 1.7484-1.7432 3.8742-2.6151 6.3775-2.6151s4.6291.8719 6.3775 2.6151c1.7881 1.705 2.6821 3.785 2.6821 6.242 0 2.774-.894 4.954-2.6821 6.539s-3.8742 2.378-6.2583 2.378z" fill="#fff"/></svg>