<svg>
  <symbol fill="none" xmlns="http://www.w3.org/2000/svg" viewBox="0 0 9 14" id="drag">
    <circle cx="2" cy="2" r="1.5" fill="#8E8E8E"></circle>
    <circle cx="2" cy="7" r="1.5" fill="#8E8E8E"></circle>
    <circle cx="2" cy="12" r="1.5" fill="#8E8E8E"></circle>
    <circle cx="7" cy="2" r="1.5" fill="#8E8E8E"></circle>
    <circle cx="7" cy="7" r="1.5" fill="#8E8E8E"></circle>
    <circle cx="7" cy="12" r="1.5" fill="#8E8E8E"></circle>
  </symbol>
  <symbol fill="none" xmlns="http://www.w3.org/2000/svg" viewBox="0 0 13 12" id="trash">
    <path d="M2.49437 10.875C2.5389 11.5758 3.00296 12 3.71312 12H9.235C10.0436 12 10.4702 11.5852 10.5194 10.7812C10.6506 8.61563 10.9694 3.33516 10.9928 2.90391H2.02093C2.02093 2.99766 2.335 8.33906 2.49437 10.875ZM10.9834 0.771094C10.3483 0.766406 9.71546 0.761719 9.08265 0.773438C9.04515 0.3375 8.67953 0 8.24124 0H4.75843C4.32015 0 3.95453 0.3375 3.91937 0.773438C3.26781 0.761719 2.6139 0.766406 1.96234 0.771094C1.62015 0.775781 1.37171 0.965625 1.28968 1.26562C1.14671 1.78828 1.46312 2.21953 2.00453 2.22188C3.50687 2.22656 5.00687 2.22422 6.50687 2.22422H10.9787C11.4639 2.22422 11.7428 1.95234 11.7452 1.5C11.7475 1.04766 11.4662 0.773438 10.9834 0.771094Z" fill="#86888D"></path>
  </symbol>
  <symbol fill="none" xmlns="http://www.w3.org/2000/svg" viewBox="0 0 12 12" id="help">
    <path d="M6 0C4.81332 0 3.65328 0.351894 2.66658 1.01118C1.67989 1.67047 0.910851 2.60754 0.456726 3.7039C0.00259972 4.80026 -0.11622 6.00666 0.115291 7.17054C0.346802 8.33443 0.918247 9.40353 1.75736 10.2426C2.59648 11.0818 3.66558 11.6532 4.82946 11.8847C5.99335 12.1162 7.19975 11.9974 8.2961 11.5433C9.39246 11.0892 10.3295 10.3201 10.9888 9.33342C11.6481 8.34673 12 7.18669 12 6C11.9983 4.40923 11.3656 2.88411 10.2407 1.75926C9.1159 0.634414 7.59077 0.00172054 6 0ZM6 11C5.0111 11 4.0444 10.7068 3.22215 10.1573C2.39991 9.60794 1.75904 8.82705 1.38061 7.91342C1.00217 6.99979 0.90315 5.99445 1.09608 5.02455C1.289 4.05464 1.76521 3.16373 2.46447 2.46447C3.16373 1.7652 4.05465 1.289 5.02455 1.09607C5.99446 0.903148 6.99979 1.00216 7.91342 1.3806C8.82705 1.75904 9.60794 2.3999 10.1574 3.22215C10.7068 4.0444 11 5.01109 11 6C10.9985 7.32564 10.4713 8.59656 9.53393 9.53393C8.59656 10.4713 7.32564 10.9985 6 11Z" fill="#A0A0A0"></path>
    <path d="M6 5H5.5C5.36739 5 5.24021 5.05268 5.14645 5.14645C5.05268 5.24021 5 5.36739 5 5.5C5 5.63261 5.05268 5.75979 5.14645 5.85355C5.24021 5.94732 5.36739 6 5.5 6H6V9C6 9.13261 6.05268 9.25979 6.14645 9.35355C6.24021 9.44732 6.36739 9.5 6.5 9.5C6.63261 9.5 6.75979 9.44732 6.85355 9.35355C6.94732 9.25979 7 9.13261 7 9V6C7 5.73478 6.89464 5.48043 6.70711 5.29289C6.51957 5.10536 6.26522 5 6 5Z" fill="#A0A0A0"></path>
    <path d="M6 4C6.41421 4 6.75 3.66421 6.75 3.25C6.75 2.83579 6.41421 2.5 6 2.5C5.58579 2.5 5.25 2.83579 5.25 3.25C5.25 3.66421 5.58579 4 6 4Z" fill="#A0A0A0"></path>
  </symbol>
  <symbol fill="none" xmlns="http://www.w3.org/2000/svg" viewBox="0 0 18 18" id="down-arrow">
    <path fill-rule="evenodd" clip-rule="evenodd" d="M9 10.7929L12.2929 7.5L13 8.20711L9 12.2071L5 8.20711L5.70711 7.5L9 10.7929Z" fill="#86888D"></path>
  </symbol>
  <symbol fill="none" xmlns="http://www.w3.org/2000/svg" viewBox="0 0 12 12" id="edit">
    <path d="M9.4065 5C9.561 5 9.707 4.9285 9.8015 4.8065C9.896 4.6845 9.929 4.5255 9.891 4.376C9.7355 3.7675 9.4185 3.2115 8.9745 2.7675L7.232 1.025C6.571 0.364 5.692 0 4.757 0H2.4995C1.1215 0 0 1.1215 0 2.5V9.5C0 10.8785 1.1215 12 2.5 12H4C4.276 12 4.5 11.776 4.5 11.5C4.5 11.224 4.276 11 4 11H2.5C1.673 11 1 10.327 1 9.5V2.5C1 1.673 1.673 1 2.5 1H4.7575C4.839 1 4.92 1.004 5 1.0115V3.5C5 4.327 5.673 5 6.5 5H9.4065ZM6 3.5V1.3295C6.1895 1.4385 6.366 1.5735 6.525 1.7325L8.2675 3.475C8.4245 3.632 8.559 3.809 8.669 4H6.5C6.2245 4 6 3.7755 6 3.5ZM11.561 5.9395C10.994 5.3725 10.006 5.3725 9.4395 5.9395L6.086 9.293C5.7085 9.6705 5.5 10.173 5.5 10.7075V11.5005C5.5 11.7765 5.724 12.0005 6 12.0005H6.793C7.3275 12.0005 7.8295 11.792 8.207 11.4145L11.5605 8.061C11.844 7.7775 12 7.401 12 7C12 6.599 11.844 6.2225 11.561 5.9395ZM10.8535 7.3535L7.4995 10.707C7.311 10.896 7.06 11 6.7925 11H6.4995V10.707C6.4995 10.44 6.6035 10.189 6.7925 10L10.1465 6.6465C10.335 6.4575 10.6645 6.4575 10.8535 6.6465C10.948 6.7405 11 6.866 11 7C11 7.134 10.948 7.259 10.8535 7.3535Z" fill="#0073AA"></path>
  </symbol>
  <symbol fill="none" xmlns="http://www.w3.org/2000/svg" viewBox="0 0 12 12" id="duplicate">
    <path d="M10.5775 1.636L9.43547 0.4565C9.29527 0.312483 9.12767 0.19792 8.94254 0.119531C8.75743 0.0411412 8.55853 0.000503216 8.3575 0H6C5.4239 0.000727262 4.86566 0.200045 4.41938 0.564359C3.97309 0.928673 3.66605 1.43571 3.55 2H3.5C2.8372 2.00079 2.20178 2.26444 1.73311 2.73311C1.26444 3.20178 1.0008 3.8372 1 4.5V9.5C1.0008 10.1628 1.26444 10.7982 1.73311 11.2669C2.20178 11.7356 2.8372 11.9992 3.5 12H6.5C7.1628 11.9992 7.79822 11.7356 8.26689 11.2669C8.73556 10.7982 8.99921 10.1628 9 9.5V9.45C9.56427 9.33395 10.0714 9.02691 10.4357 8.58063C10.8 8.13434 10.9993 7.5761 11 7V2.68C11.0008 2.29021 10.8492 1.91556 10.5775 1.636ZM6.5 11H3.5C3.10218 11 2.72065 10.842 2.43934 10.5607C2.15804 10.2794 2 9.89782 2 9.5V4.5C2 4.10218 2.15804 3.72064 2.43934 3.43934C2.72065 3.15804 3.10218 3 3.5 3V7C3.5008 7.6628 3.76444 8.29822 4.23311 8.76689C4.70178 9.23556 5.3372 9.49921 6 9.5H8C8 9.89782 7.84197 10.2794 7.56066 10.5607C7.27936 10.842 6.89783 11 6.5 11ZM8.5 8.5H6C5.60218 8.5 5.22065 8.34196 4.93934 8.06066C4.65804 7.77936 4.5 7.39782 4.5 7V2.5C4.5 2.10218 4.65804 1.72064 4.93934 1.43934C5.22065 1.15804 5.60218 1 6 1H8V2C8 2.26522 8.10536 2.51957 8.2929 2.70711C8.48043 2.89464 8.73479 3 9 3H9.99997V7C9.99997 7.39782 9.84197 7.77936 9.56067 8.06066C9.27937 8.34196 8.89783 8.5 8.5 8.5Z" fill="#0073AA"></path>
  </symbol>
  <symbol fill="none" xmlns="http://www.w3.org/2000/svg" viewBox="0 0 12 12" id="delete">
    <path d="M1.99486 10.875C2.03939 11.5758 2.50345 12 3.21361 12H8.73548C9.54406 12 9.97066 11.5852 10.0199 10.7812C10.1511 8.61563 10.4699 3.33516 10.4933 2.90391H1.52142C1.52142 2.99766 1.83548 8.33906 1.99486 10.875ZM10.484 0.771094C9.84876 0.766406 9.21596 0.761719 8.58314 0.773438C8.54564 0.3375 8.18001 0 7.74173 0H4.25892C3.82064 0 3.45501 0.3375 3.41986 0.773438C2.7683 0.761719 2.11439 0.766406 1.46283 0.771094C1.12064 0.775781 0.872202 0.965625 0.790172 1.26562C0.647202 1.78828 0.963611 2.21953 1.50501 2.22188C3.00736 2.22656 4.50736 2.22422 6.00736 2.22422H10.4793C10.9644 2.22422 11.2433 1.95234 11.2457 1.5C11.248 1.04766 10.9668 0.773438 10.484 0.771094Z" fill="#A53934"></path>
  </symbol>
</svg>