<svg>
  <symbol fill="none" xmlns="http://www.w3.org/2000/svg" viewBox="0 0 9 14" id="drag">
    <circle cx="2" cy="2" r="1.5" fill="#8E8E8E"></circle>
    <circle cx="2" cy="7" r="1.5" fill="#8E8E8E"></circle>
    <circle cx="2" cy="12" r="1.5" fill="#8E8E8E"></circle>
    <circle cx="7" cy="2" r="1.5" fill="#8E8E8E"></circle>
    <circle cx="7" cy="7" r="1.5" fill="#8E8E8E"></circle>
    <circle cx="7" cy="12" r="1.5" fill="#8E8E8E"></circle>
  </symbol>
  <symbol fill="none" xmlns="http://www.w3.org/2000/svg" viewBox="0 0 13 12" id="trash">
    <path d="M2.49437 10.875C2.5389 11.5758 3.00296 12 3.71312 12H9.235C10.0436 12 10.4702 11.5852 10.5194 10.7812C10.6506 8.61563 10.9694 3.33516 10.9928 2.90391H2.02093C2.02093 2.99766 2.335 8.33906 2.49437 10.875ZM10.9834 0.771094C10.3483 0.766406 9.71546 0.761719 9.08265 0.773438C9.04515 0.3375 8.67953 0 8.24124 0H4.75843C4.32015 0 3.95453 0.3375 3.91937 0.773438C3.26781 0.761719 2.6139 0.766406 1.96234 0.771094C1.62015 0.775781 1.37171 0.965625 1.28968 1.26562C1.14671 1.78828 1.46312 2.21953 2.00453 2.22188C3.50687 2.22656 5.00687 2.22422 6.50687 2.22422H10.9787C11.4639 2.22422 11.7428 1.95234 11.7452 1.5C11.7475 1.04766 11.4662 0.773438 10.9834 0.771094Z" fill="#86888D"></path>
  </symbol>
  <symbol fill="none" xmlns="http://www.w3.org/2000/svg" viewBox="0 0 12 12" id="help">
    <path d="M6 0C4.81332 0 3.65328 0.351894 2.66658 1.01118C1.67989 1.67047 0.910851 2.60754 0.456726 3.7039C0.00259972 4.80026 -0.11622 6.00666 0.115291 7.17054C0.346802 8.33443 0.918247 9.40353 1.75736 10.2426C2.59648 11.0818 3.66558 11.6532 4.82946 11.8847C5.99335 12.1162 7.19975 11.9974 8.2961 11.5433C9.39246 11.0892 10.3295 10.3201 10.9888 9.33342C11.6481 8.34673 12 7.18669 12 6C11.9983 4.40923 11.3656 2.88411 10.2407 1.75926C9.1159 0.634414 7.59077 0.00172054 6 0ZM6 11C5.0111 11 4.0444 10.7068 3.22215 10.1573C2.39991 9.60794 1.75904 8.82705 1.38061 7.91342C1.00217 6.99979 0.90315 5.99445 1.09608 5.02455C1.289 4.05464 1.76521 3.16373 2.46447 2.46447C3.16373 1.7652 4.05465 1.289 5.02455 1.09607C5.99446 0.903148 6.99979 1.00216 7.91342 1.3806C8.82705 1.75904 9.60794 2.3999 10.1574 3.22215C10.7068 4.0444 11 5.01109 11 6C10.9985 7.32564 10.4713 8.59656 9.53393 9.53393C8.59656 10.4713 7.32564 10.9985 6 11Z" fill="#A0A0A0"></path>
    <path d="M6 5H5.5C5.36739 5 5.24021 5.05268 5.14645 5.14645C5.05268 5.24021 5 5.36739 5 5.5C5 5.63261 5.05268 5.75979 5.14645 5.85355C5.24021 5.94732 5.36739 6 5.5 6H6V9C6 9.13261 6.05268 9.25979 6.14645 9.35355C6.24021 9.44732 6.36739 9.5 6.5 9.5C6.63261 9.5 6.75979 9.44732 6.85355 9.35355C6.94732 9.25979 7 9.13261 7 9V6C7 5.73478 6.89464 5.48043 6.70711 5.29289C6.51957 5.10536 6.26522 5 6 5Z" fill="#A0A0A0"></path>
    <path d="M6 4C6.41421 4 6.75 3.66421 6.75 3.25C6.75 2.83579 6.41421 2.5 6 2.5C5.58579 2.5 5.25 2.83579 5.25 3.25C5.25 3.66421 5.58579 4 6 4Z" fill="#A0A0A0"></path>
  </symbol>
</svg>