<svg>
  <symbol xmlns="http://www.w3.org/2000/svg" viewBox="0 0 16 16" id="eye-crossed" fill="currentcolor">
    <path d="M15.514 6.27923C14.9122 5.29372 14.153 4.4134 13.2667 3.67323L15.1334 1.80657C15.2548 1.68083 15.322 1.51243 15.3205 1.33763C15.319 1.16283 15.2489 0.995625 15.1252 0.87202C15.0016 0.748415 14.8344 0.678302 14.6596 0.676783C14.4848 0.675264 14.3164 0.74246 14.1907 0.863899L12.1607 2.89657C10.9023 2.14911 9.46365 1.75954 8.00003 1.7699C3.8727 1.7699 1.5207 4.59523 0.486034 6.27923C0.166386 6.79624 -0.00292969 7.39206 -0.00292969 7.9999C-0.00292969 8.60774 0.166386 9.20356 0.486034 9.72057C1.08787 10.7061 1.84703 11.5864 2.73337 12.3266L0.866701 14.1932C0.803027 14.2547 0.752239 14.3283 0.7173 14.4096C0.682361 14.491 0.66397 14.5784 0.663201 14.667C0.662431 14.7555 0.679299 14.8433 0.71282 14.9252C0.74634 15.0071 0.795842 15.0816 0.858438 15.1442C0.921033 15.2068 0.995467 15.2563 1.0774 15.2898C1.15933 15.3233 1.24712 15.3402 1.33564 15.3394C1.42415 15.3386 1.51163 15.3202 1.59297 15.2853C1.67431 15.2504 1.74787 15.1996 1.80937 15.1359L3.84403 13.1012C5.10088 13.8486 6.53782 14.2388 8.00003 14.2299C12.1274 14.2299 14.4794 11.4046 15.514 9.72057C15.8337 9.20356 16.003 8.60774 16.003 7.9999C16.003 7.39206 15.8337 6.79624 15.514 6.27923ZM1.62203 9.02257C1.43212 8.71526 1.33153 8.36115 1.33153 7.9999C1.33153 7.63865 1.43212 7.28454 1.62203 6.97723C2.51137 5.53323 4.52137 3.10323 8.00003 3.10323C9.10688 3.09703 10.1982 3.36379 11.1774 3.8799L9.83537 5.2219C9.19532 4.79697 8.42797 4.60656 7.66352 4.683C6.89907 4.75943 6.18461 5.09799 5.64137 5.64123C5.09813 6.18448 4.75956 6.89894 4.68313 7.66339C4.6067 8.42784 4.7971 9.19519 5.22203 9.83523L3.68203 11.3752C2.86544 10.715 2.16859 9.9192 1.62203 9.02257ZM10 7.9999C10 8.53033 9.78932 9.03904 9.41425 9.41411C9.03918 9.78919 8.53047 9.9999 8.00003 9.9999C7.70304 9.99875 7.41017 9.93037 7.14337 9.7999L9.80003 7.14323C9.93051 7.41003 9.99888 7.70291 10 7.9999ZM6.00003 7.9999C6.00003 7.46947 6.21075 6.96076 6.58582 6.58569C6.96089 6.21061 7.4696 5.9999 8.00003 5.9999C8.29703 6.00105 8.5899 6.06942 8.8567 6.1999L6.20003 8.85657C6.06956 8.58977 6.00118 8.29689 6.00003 7.9999ZM14.378 9.02257C13.4887 10.4666 11.4787 12.8966 8.00003 12.8966C6.89319 12.9028 5.80188 12.636 4.8227 12.1199L6.1647 10.7779C6.80475 11.2028 7.5721 11.3932 8.33655 11.3168C9.101 11.2404 9.81546 10.9018 10.3587 10.3586C10.9019 9.81532 11.2405 9.10086 11.3169 8.33641C11.3934 7.57196 11.203 6.80461 10.778 6.16457L12.318 4.62457C13.1346 5.28475 13.8315 6.0806 14.378 6.97723C14.5679 7.28454 14.6685 7.63865 14.6685 7.9999C14.6685 8.36115 14.5679 8.71526 14.378 9.02257Z"></path>
  </symbol>
  <symbol xmlns="http://www.w3.org/2000/svg" viewBox="0 0 16 16" id="eye" fill="currentcolor">
    <path d="M15.514 6.27886C14.48 4.59486 12.128 1.76953 8.00003 1.76953C3.87203 1.76953 1.52003 4.59486 0.486034 6.27886C0.166386 6.79587 -0.00292969 7.39169 -0.00292969 7.99953C-0.00292969 8.60737 0.166386 9.20319 0.486034 9.7202C1.52003 11.4042 3.87203 14.2295 8.00003 14.2295C12.128 14.2295 14.48 11.4042 15.514 9.7202C15.8337 9.20319 16.003 8.60737 16.003 7.99953C16.003 7.39169 15.8337 6.79587 15.514 6.27886ZM14.3774 9.0222C13.4894 10.4662 11.4794 12.8962 8.00003 12.8962C4.5207 12.8962 2.5107 10.4662 1.6227 9.0222C1.43279 8.7149 1.3322 8.36078 1.3322 7.99953C1.3322 7.63828 1.43279 7.28417 1.6227 6.97686C2.5107 5.53286 4.5207 3.10286 8.00003 3.10286C11.4794 3.10286 13.4894 5.5302 14.3774 6.97686C14.5673 7.28417 14.6679 7.63828 14.6679 7.99953C14.6679 8.36078 14.5673 8.7149 14.3774 9.0222Z"></path>
    <path d="M7.99984 4.66699C7.34057 4.66699 6.6961 4.86249 6.14794 5.22876C5.59977 5.59503 5.17253 6.11563 4.92024 6.72471C4.66795 7.3338 4.60194 8.00402 4.73055 8.65063C4.85917 9.29723 5.17664 9.89117 5.64282 10.3573C6.10899 10.8235 6.70293 11.141 7.34954 11.2696C7.99614 11.3982 8.66636 11.3322 9.27545 11.0799C9.88454 10.8276 10.4051 10.4004 10.7714 9.85223C11.1377 9.30406 11.3332 8.6596 11.3332 8.00033C11.3321 7.1166 10.9806 6.26936 10.3557 5.64447C9.7308 5.01958 8.88357 4.66805 7.99984 4.66699ZM7.99984 10.0003C7.60428 10.0003 7.2176 9.88303 6.8887 9.66326C6.5598 9.4435 6.30345 9.13114 6.15208 8.76569C6.0007 8.40024 5.9611 7.99811 6.03827 7.61015C6.11544 7.22218 6.30592 6.86582 6.58562 6.58611C6.86533 6.30641 7.2217 6.11593 7.60966 6.03875C7.99762 5.96158 8.39975 6.00119 8.76521 6.15257C9.13066 6.30394 9.44302 6.56029 9.66278 6.88919C9.88254 7.21808 9.99984 7.60476 9.99984 8.00033C9.99984 8.53076 9.78913 9.03947 9.41405 9.41454C9.03898 9.78961 8.53027 10.0003 7.99984 10.0003Z"></path>
  </symbol>
  <symbol fill="currentcolor" xmlns="http://www.w3.org/2000/svg" viewBox="0 0 24 24" id="arrow-down">
    <path fill-rule="evenodd" clip-rule="evenodd" d="M11.0004 14.5316C11.2931 14.8234 11.7669 14.8234 12.0596 14.5316L15.5896 11.0116C15.8829 10.7191 15.8836 10.2442 15.5911 9.95089C15.2986 9.65758 14.8237 9.65691 14.5304 9.94939L11.53 12.9413L8.52958 9.94939C8.23627 9.65691 7.7614 9.65758 7.46892 9.95089C7.17644 10.2442 7.17711 10.7191 7.47042 11.0116L11.0004 14.5316Z"></path>
  </symbol>
  <symbol fill="currentcolor" xmlns="http://www.w3.org/2000/svg" viewBox="0 0 20 20" id="search">
    <path fill-rule="evenodd" clip-rule="evenodd" d="M9.1665 3.33366C5.94484 3.33366 3.33317 5.94533 3.33317 9.16699C3.33317 12.3887 5.94484 15.0003 9.1665 15.0003C12.3882 15.0003 14.9998 12.3887 14.9998 9.16699C14.9998 5.94533 12.3882 3.33366 9.1665 3.33366ZM1.6665 9.16699C1.6665 5.02486 5.02437 1.66699 9.1665 1.66699C13.3086 1.66699 16.6665 5.02486 16.6665 9.16699C16.6665 13.3091 13.3086 16.667 9.1665 16.667C5.02437 16.667 1.6665 13.3091 1.6665 9.16699Z"></path>
    <path fill-rule="evenodd" clip-rule="evenodd" d="M13.2856 13.2861C13.611 12.9606 14.1387 12.9606 14.4641 13.2861L18.0891 16.9111C18.4145 17.2365 18.4145 17.7641 18.0891 18.0896C17.7637 18.415 17.236 18.415 16.9106 18.0896L13.2856 14.4646C12.9601 14.1391 12.9601 13.6115 13.2856 13.2861Z"></path>
  </symbol>
  <symbol fill="none" xmlns="http://www.w3.org/2000/svg" viewBox="0 0 22 22" id="angle-circle-right">
    <path d="M0 11C0 13.1756 0.645139 15.3023 1.85383 17.1113C3.06253 18.9202 4.7805 20.3301 6.79048 21.1627C8.80047 21.9952 11.0122 22.2131 13.146 21.7886C15.2798 21.3642 17.2398 20.3166 18.7782 18.7782C20.3166 17.2398 21.3642 15.2798 21.7886 13.146C22.2131 11.0122 21.9952 8.80047 21.1627 6.79048C20.3301 4.7805 18.9202 3.06253 17.1113 1.85383C15.3023 0.645139 13.1756 0 11 0C8.08359 0.00315432 5.28753 1.16309 3.22531 3.22531C1.16309 5.28753 0.00315432 8.08359 0 11ZM14.6667 11C14.6674 11.671 14.4221 12.319 13.9773 12.8214C13.7106 13.1212 13.4512 13.4053 13.2651 13.5914L10.6764 16.225C10.5935 16.3165 10.493 16.3904 10.3809 16.4421C10.2687 16.4939 10.1473 16.5224 10.0238 16.526C9.9004 16.5297 9.7775 16.5083 9.66251 16.4633C9.54753 16.4182 9.44283 16.3504 9.35471 16.2639C9.26658 16.1774 9.19685 16.0739 9.14969 15.9598C9.10254 15.8456 9.07893 15.7232 9.08029 15.5997C9.08165 15.4762 9.10794 15.3542 9.1576 15.2412C9.20725 15.1281 9.27924 15.0262 9.36925 14.9417L11.9625 12.3017C12.1339 12.1293 12.3668 11.8727 12.6042 11.6059C12.7519 11.4385 12.8334 11.2228 12.8334 10.9995C12.8334 10.7762 12.7519 10.5606 12.6042 10.3932C12.3677 10.1273 12.1348 9.87067 11.9689 9.70383L9.36925 7.05833C9.27924 6.97378 9.20725 6.8719 9.1576 6.75883C9.10794 6.64576 9.08165 6.52382 9.08029 6.40033C9.07893 6.27684 9.10254 6.15436 9.14969 6.04022C9.19685 5.92608 9.26658 5.82265 9.35471 5.73613C9.44283 5.64962 9.54753 5.5818 9.66251 5.53675C9.7775 5.4917 9.9004 5.47035 10.0238 5.47398C10.1473 5.47761 10.2687 5.50614 10.3809 5.55787C10.493 5.6096 10.5935 5.68345 10.6764 5.775L13.2697 8.41408C13.453 8.59742 13.7097 8.87883 13.9746 9.17767C14.4208 9.67978 14.6671 10.3283 14.6667 11Z" fill="#0F5AA7"></path>
  </symbol>
  <symbol fill="currentcolor" xmlns="http://www.w3.org/2000/svg" viewBox="0 0 16 17" id="quiz">
    <path d="M16 3.49958C16 3.67639 15.9297 3.84596 15.8047 3.97098C15.6797 4.09601 15.5101 4.16625 15.3333 4.16625C15.1565 4.16625 14.9869 4.09601 14.8619 3.97098C14.7369 3.84596 14.6666 3.67639 14.6666 3.49958C14.6592 3.26655 14.6047 3.03745 14.5063 2.82608C14.4079 2.6147 14.2678 2.42544 14.0943 2.2697C13.9208 2.11396 13.7175 1.99497 13.4968 1.9199C13.2761 1.84483 13.0424 1.81524 12.81 1.83291C12.6332 1.83291 12.4636 1.76267 12.3386 1.63765C12.2135 1.51263 12.1433 1.34306 12.1433 1.16625C12.1433 0.989434 12.2135 0.819865 12.3386 0.694841C12.4636 0.569817 12.6332 0.499579 12.81 0.499579C13.2174 0.48309 13.624 0.54802 14.0061 0.690568C14.3881 0.833116 14.7379 1.05042 15.0349 1.32977C15.3319 1.60912 15.5703 1.9449 15.736 2.31747C15.9017 2.69003 15.9914 3.09191 16 3.49958Z"></path>
    <path d="M1.33333 3.49958C1.34076 3.26655 1.39531 3.03745 1.49368 2.82608C1.59205 2.6147 1.73221 2.42544 1.9057 2.2697C2.0792 2.11396 2.28243 1.99497 2.50316 1.9199C2.72389 1.84483 2.95753 1.81524 3.19 1.83291C3.36681 1.83291 3.53638 1.76267 3.6614 1.63765C3.78643 1.51263 3.85667 1.34306 3.85667 1.16625C3.85667 0.989434 3.78643 0.819865 3.6614 0.694841C3.53638 0.569817 3.36681 0.499579 3.19 0.499579C2.78257 0.48309 2.37595 0.54802 1.99392 0.690568C1.61189 0.833116 1.26212 1.05042 0.965084 1.32977C0.668045 1.60912 0.429698 1.9449 0.263987 2.31747C0.0982768 2.69003 0.00853083 3.09191 0 3.49958C0 3.67639 0.0702379 3.84596 0.195262 3.97098C0.320286 4.09601 0.489856 4.16625 0.666667 4.16625C0.843478 4.16625 1.01305 4.09601 1.13807 3.97098C1.2631 3.84596 1.33333 3.67639 1.33333 3.49958Z"></path>
    <path d="M13.546 13.9507C14.4282 12.9321 15.0122 11.6898 15.2336 10.3605C15.4549 9.03131 15.3051 7.66676 14.8005 6.41725C14.296 5.16774 13.4563 4.08176 12.374 3.27895C11.2917 2.47614 10.0088 1.98766 8.66664 1.86733V1.16667C8.66664 0.989856 8.5964 0.820286 8.47138 0.695262C8.34635 0.570238 8.17679 0.5 7.99997 0.5C7.82316 0.5 7.65359 0.570238 7.52857 0.695262C7.40355 0.820286 7.33331 0.989856 7.33331 1.16667V1.86733C5.99115 1.98766 4.70826 2.47614 3.62597 3.27895C2.54367 4.08176 1.70399 5.16774 1.19943 6.41725C0.69487 7.66676 0.545013 9.03131 0.766371 10.3605C0.987729 11.6898 1.57171 12.9321 2.45397 13.9507C2.10555 14.123 1.8144 14.3925 1.61557 14.7265C1.41674 15.0605 1.31871 15.4449 1.33331 15.8333C1.33331 16.0101 1.40355 16.1797 1.52857 16.3047C1.65359 16.4298 1.82316 16.5 1.99997 16.5C2.17679 16.5 2.34636 16.4298 2.47138 16.3047C2.5964 16.1797 2.66664 16.0101 2.66664 15.8333C2.6611 15.6278 2.73487 15.4281 2.87265 15.2756C3.01043 15.123 3.20165 15.0293 3.40664 15.014C3.4525 15.0053 3.49722 14.9914 3.53997 14.9727C4.817 15.9631 6.3872 16.5007 8.00331 16.5007C9.61942 16.5007 11.1896 15.9631 12.4666 14.9727C12.5057 14.9906 12.5463 15.0049 12.588 15.0153C12.7937 15.0294 12.986 15.1223 13.1249 15.2747C13.2638 15.4271 13.3384 15.6272 13.3333 15.8333C13.3333 16.0101 13.4035 16.1797 13.5286 16.3047C13.6536 16.4298 13.8232 16.5 14 16.5C14.1768 16.5 14.3464 16.4298 14.4714 16.3047C14.5964 16.1797 14.6666 16.0101 14.6666 15.8333C14.6812 15.4449 14.5832 15.0605 14.3844 14.7265C14.1856 14.3925 13.8944 14.123 13.546 13.9507ZM10.4713 10.9713C10.3463 11.0963 10.1768 11.1665 9.99998 11.1665C9.8232 11.1665 9.65366 11.0963 9.52864 10.9713L7.52864 8.97133C7.40361 8.84634 7.33335 8.6768 7.33331 8.5V5.16667C7.33331 4.98986 7.40355 4.82029 7.52857 4.69526C7.65359 4.57024 7.82316 4.5 7.99997 4.5C8.17679 4.5 8.34635 4.57024 8.47138 4.69526C8.5964 4.82029 8.66664 4.98986 8.66664 5.16667V8.224L10.4713 10.0287C10.5963 10.1537 10.6665 10.3232 10.6665 10.5C10.6665 10.6768 10.5963 10.8463 10.4713 10.9713Z"></path>
  </symbol>
  <symbol fill="currentcolor" xmlns="http://www.w3.org/2000/svg" viewBox="0 0 16 16" id="clock">
    <path d="M8.00016 1.33496C4.3335 1.33496 1.3335 4.33496 1.3335 8.00163C1.3335 11.6683 4.3335 14.6683 8.00016 14.6683C11.6668 14.6683 14.6668 11.6683 14.6668 8.00163C14.6668 4.33496 11.6668 1.33496 8.00016 1.33496ZM10.8002 10.8016L7.3335 8.66829V4.66829H8.3335V8.13496L11.3335 9.93496L10.8002 10.8016Z"></path>
  </symbol>
  <symbol fill="currentcolor" xmlns="http://www.w3.org/2000/svg" viewBox="0 0 17 17" id="lessons">
    <path d="M2.99972 12.5C2.50772 12.4993 2.03238 12.6807 1.66638 13.01V2.5C1.66638 1.39533 2.56172 0.5 3.66638 0.5H4.33305V12.5H2.99972ZM13.6664 0.5H12.333V7.83333L10.6664 6.16667L8.99972 7.83333V0.5H5.66638V12.5H14.9997V1.83333C14.9997 1.09667 14.403 0.5 13.6664 0.5ZM1.66638 15.1667C1.66638 15.9033 2.26305 16.5 2.99972 16.5H14.9997V13.8333H2.99972C2.26305 13.8333 1.66638 14.43 1.66638 15.1667Z"></path>
  </symbol>
  <symbol fill="currentcolor" xmlns="http://www.w3.org/2000/svg" viewBox="0 0 32 32" id="filters">
    <path fill-rule="evenodd" clip-rule="evenodd" d="M7.03537 9.94337C5.50902 7.5012 7.26475 4.33337 10.1447 4.33337H21.8554C24.7353 4.33337 26.4911 7.50116 24.9647 9.94337L22.064 14.5844C21.3687 15.697 21 16.9825 21 18.2944V25.8427C21 27.5772 19.1746 28.7053 17.6233 27.9297L13.027 25.6315C11.7847 25.0104 11 23.7408 11 22.3519V18.2944C11 16.9825 10.6313 15.697 9.93602 14.5844L7.03537 9.94337ZM10.1447 6.33337C8.83564 6.33337 8.03756 7.77328 8.73137 8.88338L11.632 13.5244C12.526 14.9548 13 16.6077 13 18.2944V22.3519C13 22.9833 13.3567 23.5603 13.9214 23.8427L18.5177 26.1408C18.7394 26.2516 19 26.0903 19 25.8427V18.2944C19 16.6077 19.474 14.9548 20.3681 13.5244L23.2687 8.88337C23.9625 7.77332 23.1645 6.33337 21.8554 6.33337H10.1447Z"></path>
  </symbol>
  <symbol fill="currentcolor" xmlns="http://www.w3.org/2000/svg" viewBox="0 0 32 32" id="cross">
    <path fill-rule="evenodd" clip-rule="evenodd" d="M7.41624 7.41622C7.97119 6.86126 8.87095 6.86126 9.42591 7.41622L16 13.9903L22.5741 7.41622C23.1291 6.86126 24.0288 6.86126 24.5838 7.41622C25.1387 7.97117 25.1387 8.87093 24.5838 9.42589L18.0097 16L24.5838 22.5741C25.1387 23.1291 25.1387 24.0288 24.5838 24.5838C24.0288 25.1387 23.1291 25.1387 22.5741 24.5838L16 18.0097L9.42589 24.5838C8.87093 25.1387 7.97117 25.1387 7.41622 24.5838C6.86126 24.0288 6.86126 23.1291 7.41622 22.5741L13.9903 16L7.41623 9.42589C6.86128 8.87093 6.86128 7.97117 7.41624 7.41622Z"></path>
  </symbol>
  <symbol fill="none" xmlns="http://www.w3.org/2000/svg" viewBox="0 0 16 16" id="home">
    <path d="M15.414 6.0464L10.3573 0.989066C9.7315 0.365059 8.88378 0.0146484 8.00001 0.0146484C7.11623 0.0146484 6.26851 0.365059 5.64267 0.989066L0.586008 6.0464C0.399625 6.23159 0.251855 6.45193 0.151263 6.69466C0.0506715 6.93738 -0.000740267 7.19766 8.05299e-06 7.4604V14.0051C8.05299e-06 14.5355 0.210722 15.0442 0.585795 15.4193C0.960867 15.7944 1.46958 16.0051 2.00001 16.0051H14C14.5304 16.0051 15.0391 15.7944 15.4142 15.4193C15.7893 15.0442 16 14.5355 16 14.0051V7.4604C16.0008 7.19766 15.9493 6.93738 15.8488 6.69466C15.7482 6.45193 15.6004 6.23159 15.414 6.0464ZM10 14.6717H6.00001V12.0491C6.00001 11.5186 6.21072 11.0099 6.58579 10.6349C6.96087 10.2598 7.46958 10.0491 8.00001 10.0491C8.53044 10.0491 9.03915 10.2598 9.41422 10.6349C9.7893 11.0099 10 11.5186 10 12.0491V14.6717ZM14.6667 14.0051C14.6667 14.1819 14.5964 14.3514 14.4714 14.4765C14.3464 14.6015 14.1768 14.6717 14 14.6717H11.3333V12.0491C11.3333 11.165 10.9822 10.3172 10.357 9.69204C9.73191 9.06692 8.88406 8.71573 8.00001 8.71573C7.11595 8.71573 6.26811 9.06692 5.64299 9.69204C5.01786 10.3172 4.66667 11.165 4.66667 12.0491V14.6717H2.00001C1.8232 14.6717 1.65363 14.6015 1.5286 14.4765C1.40358 14.3514 1.33334 14.1819 1.33334 14.0051V7.4604C1.33396 7.28372 1.40413 7.11439 1.52867 6.98907L6.58534 1.93373C6.96114 1.55969 7.46978 1.34969 8.00001 1.34969C8.53023 1.34969 9.03888 1.55969 9.41468 1.93373L14.4713 6.99107C14.5954 7.1159 14.6655 7.28441 14.6667 7.4604V14.0051Z" fill="#999EAD"></path>
  </symbol>
  <symbol fill="currentcolor" xmlns="http://www.w3.org/2000/svg" viewBox="0 0 24 24" id="arrow-right">
    <path fill-rule="evenodd" clip-rule="evenodd" d="M10.01 7.93865C10.3033 7.64617 10.7782 7.64684 11.0706 7.94015L14.5906 11.4701C14.8825 11.7628 14.8825 12.2366 14.5906 12.5293L11.0706 16.0593C10.7782 16.3526 10.3033 16.3533 10.01 16.0608C9.71667 15.7683 9.71599 15.2934 10.0085 15.0001L13.0004 11.9997L10.0085 8.99931C9.71599 8.706 9.71666 8.23113 10.01 7.93865Z"></path>
  </symbol>
  <symbol fill="currentcolor" xmlns="http://www.w3.org/2000/svg" viewBox="0 0 24 24" id="arrow-left">
    <path fill-rule="evenodd" clip-rule="evenodd" d="M13.99 7.93864C14.2833 8.23112 14.284 8.706 13.9915 8.9993L10.9996 11.9997L13.9915 15.0001C14.284 15.2934 14.2833 15.7683 13.99 16.0608C13.6967 16.3533 13.2218 16.3526 12.9293 16.0593L9.40935 12.5293C9.11746 12.2366 9.11746 11.7628 9.40935 11.4701L12.9293 7.94015C13.2218 7.64684 13.6967 7.64617 13.99 7.93864Z"></path>
  </symbol>
  <symbol fill="currentcolor" xmlns="http://www.w3.org/2000/svg" viewBox="0 0 20 20" id="menu-burger">
    <path d="M0.83309 9.16699H19.1664C19.6267 9.16699 19.9998 9.54009 19.9998 10.0003C19.9998 10.4606 19.6267 10.8337 19.1664 10.8337H0.83309C0.372852 10.8337 -0.000244141 10.4606 -0.000244141 10.0003C-0.000244141 9.54009 0.372852 9.16699 0.83309 9.16699Z"></path>
    <path d="M0.83309 3.33301H19.1664C19.6267 3.33301 19.9998 3.7061 19.9998 4.16634C19.9998 4.62658 19.6267 4.99967 19.1664 4.99967H0.83309C0.372852 4.99967 -0.000244141 4.62658 -0.000244141 4.16634C-0.000244141 3.7061 0.372852 3.33301 0.83309 3.33301Z"></path>
    <path d="M0.83309 15H19.1664C19.6267 15 19.9998 15.3731 19.9998 15.8333C19.9998 16.2936 19.6267 16.6667 19.1664 16.6667H0.83309C0.372852 16.6667 -0.000244141 16.2936 -0.000244141 15.8333C-0.000244141 15.3731 0.372852 15 0.83309 15Z"></path>
  </symbol>
  <symbol fill="currentcolor" xmlns="http://www.w3.org/2000/svg" viewBox="0 0 20 20" id="file">
    <path d="M19.1242 8.00032C18.9679 7.84409 18.756 7.75633 18.535 7.75633C18.314 7.75633 18.1021 7.84409 17.9458 8.00032L8.86916 17.1161C8.48226 17.5031 8.02292 17.8101 7.51738 18.0195C7.01184 18.229 6.47 18.3368 5.92279 18.3368C4.81766 18.3369 3.75775 17.898 2.97625 17.1166C2.19474 16.3352 1.75565 15.2753 1.75558 14.1702C1.7555 13.0651 2.19444 12.0052 2.97583 11.2237L11.7667 2.39698C12.2367 1.93439 12.8706 1.67629 13.5301 1.6789C14.1896 1.68151 14.8213 1.94461 15.2877 2.41091C15.7541 2.8772 16.0174 3.5089 16.0202 4.16841C16.0229 4.82792 15.765 5.4618 15.3025 5.93198L6.51166 14.7586C6.35312 14.9105 6.14205 14.9953 5.9225 14.9953C5.70294 14.9953 5.49187 14.9105 5.33333 14.7586C5.17711 14.6024 5.08934 14.3905 5.08934 14.1695C5.08934 13.9485 5.17711 13.7366 5.33333 13.5803L13.16 5.71782C13.3118 5.56065 13.3958 5.35015 13.3939 5.13165C13.392 4.91315 13.3044 4.70414 13.1498 4.54964C12.9953 4.39513 12.7863 4.30749 12.5678 4.30559C12.3493 4.30369 12.1388 4.38769 11.9817 4.53948L4.155 12.402C3.92281 12.6341 3.73862 12.9098 3.61296 13.2131C3.48729 13.5164 3.42261 13.8416 3.42261 14.1699C3.42261 14.4982 3.48729 14.8234 3.61296 15.1267C3.73862 15.43 3.92281 15.7057 4.155 15.9378C4.63135 16.3924 5.26448 16.646 5.92291 16.646C6.58135 16.646 7.21448 16.3924 7.69083 15.9378L16.4808 7.11032C17.2458 6.32557 17.6709 5.27103 17.6638 4.17513C17.6568 3.07923 17.2183 2.03022 16.4433 1.25534C15.6683 0.480457 14.6193 0.0421048 13.5234 0.0352381C12.4275 0.0283715 11.373 0.453543 10.5883 1.21865L1.7975 10.0453C0.70348 11.1393 0.0888672 12.6231 0.0888672 14.1703C0.0888672 15.7175 0.70348 17.2013 1.7975 18.2953C2.89152 19.3893 4.37532 20.0039 5.9225 20.0039C7.46967 20.0039 8.95348 19.3893 10.0475 18.2953L19.1242 9.18198C19.202 9.10454 19.2638 9.01248 19.306 8.91109C19.3481 8.80969 19.3698 8.70096 19.3698 8.59115C19.3698 8.48134 19.3481 8.37261 19.306 8.27122C19.2638 8.16982 19.202 8.07776 19.1242 8.00032Z"></path>
  </symbol>
  <symbol fill="currentcolor" xmlns="http://www.w3.org/2000/svg" viewBox="0 0 20 20" id="video">
    <path d="M11.6667 9.16659V15.8333H4.16667V9.16659H11.6667ZM20 9.16659V15.8333C20 18.1308 18.1308 19.9999 15.8333 19.9999H4.16667C1.86917 19.9999 0 18.1308 0 15.8333V9.16659C0 6.86909 1.86917 4.99992 4.16667 4.99992H8.22083L5.19333 1.36659C4.89833 1.01326 4.94667 0.487424 5.3 0.193258C5.65333 -0.101742 6.17833 -0.0534091 6.47333 0.299924L10 4.53159L13.5267 0.299924C13.8217 -0.0534091 14.3467 -0.100909 14.7 0.193258C15.0533 0.487424 15.1008 1.01326 14.8067 1.36659L11.7792 4.99992H15.8333C18.1308 4.99992 20 6.86909 20 9.16659ZM13.3333 9.16659C13.3333 8.24742 12.5858 7.49992 11.6667 7.49992H4.16667C3.2475 7.49992 2.5 8.24742 2.5 9.16659V15.8333C2.5 16.7524 3.2475 17.4999 4.16667 17.4999H11.6667C12.5858 17.4999 13.3333 16.7524 13.3333 15.8333V9.16659ZM17.9167 14.5833C17.9167 13.8933 17.3567 13.3333 16.6667 13.3333C15.9767 13.3333 15.4167 13.8933 15.4167 14.5833C15.4167 15.2733 15.9767 15.8333 16.6667 15.8333C17.3567 15.8333 17.9167 15.2733 17.9167 14.5833ZM17.9167 10.4166C17.9167 9.72659 17.3567 9.16659 16.6667 9.16659C15.9767 9.16659 15.4167 9.72659 15.4167 10.4166C15.4167 11.1066 15.9767 11.6666 16.6667 11.6666C17.3567 11.6666 17.9167 11.1066 17.9167 10.4166Z"></path>
  </symbol>
  <symbol fill="currentcolor" xmlns="http://www.w3.org/2000/svg" viewBox="0 0 20 20" id="quiz-2">
    <path d="M20 3.75021C20 3.97122 19.9122 4.18318 19.756 4.33946C19.5997 4.49574 19.3877 4.58354 19.1667 4.58354C18.9457 4.58354 18.7337 4.49574 18.5774 4.33946C18.4212 4.18318 18.3334 3.97122 18.3334 3.75021C18.3241 3.45893 18.2559 3.17254 18.1329 2.90833C18.01 2.64411 17.8348 2.40753 17.6179 2.21286C17.401 2.01818 17.147 1.86944 16.8711 1.77561C16.5952 1.68177 16.3031 1.64478 16.0125 1.66687C15.7915 1.66687 15.5796 1.57908 15.4233 1.42279C15.267 1.26651 15.1792 1.05455 15.1792 0.833539C15.1792 0.612525 15.267 0.400564 15.4233 0.244283C15.5796 0.0880031 15.7915 0.000205677 16.0125 0.000205677C16.5218 -0.0204046 17.0301 0.060757 17.5076 0.238942C17.9852 0.417128 18.4224 0.688758 18.7937 1.03794C19.165 1.38713 19.4629 1.80685 19.67 2.27256C19.8772 2.73827 19.9894 3.24062 20 3.75021Z"></path>
    <path d="M1.66667 3.75021C1.67596 3.45893 1.74414 3.17254 1.8671 2.90833C1.99006 2.64411 2.16526 2.40753 2.38213 2.21286C2.59899 2.01818 2.85304 1.86944 3.12895 1.77561C3.40486 1.68177 3.69691 1.64478 3.9875 1.66687C4.20851 1.66687 4.42048 1.57908 4.57676 1.42279C4.73304 1.26651 4.82083 1.05455 4.82083 0.833539C4.82083 0.612525 4.73304 0.400564 4.57676 0.244283C4.42048 0.0880031 4.20851 0.000205677 3.9875 0.000205677C3.47822 -0.0204046 2.96994 0.060757 2.4924 0.238942C2.01486 0.417128 1.57765 0.688758 1.20636 1.03794C0.835056 1.38713 0.537122 1.80685 0.329984 2.27256C0.122846 2.73827 0.0106635 3.24062 0 3.75021C0 3.97122 0.0877974 4.18318 0.244078 4.33946C0.400358 4.49574 0.61232 4.58354 0.833333 4.58354C1.05435 4.58354 1.26631 4.49574 1.42259 4.33946C1.57887 4.18318 1.66667 3.97122 1.66667 3.75021Z"></path>
    <path d="M16.9323 16.8133C18.0351 15.5401 18.7651 13.9872 19.0418 12.3257C19.3185 10.6641 19.1312 8.95845 18.5005 7.39657C17.8698 5.83468 16.8202 4.4772 15.4673 3.47368C14.1144 2.47017 12.5108 1.85957 10.8331 1.70917V0.833333C10.8331 0.61232 10.7453 0.400358 10.5891 0.244078C10.4328 0.0877974 10.2208 0 9.9998 0C9.77879 0 9.56683 0.0877974 9.41055 0.244078C9.25426 0.400358 9.16647 0.61232 9.16647 0.833333V1.70917C7.48877 1.85957 5.88515 2.47017 4.53229 3.47368C3.17943 4.4772 2.12982 5.83468 1.49912 7.39657C0.86842 8.95845 0.681099 10.6641 0.957796 12.3257C1.23449 13.9872 1.96447 15.5401 3.0673 16.8133C2.63178 17.0288 2.26783 17.3656 2.01929 17.7831C1.77075 18.2006 1.64823 18.6811 1.66647 19.1667C1.66647 19.3877 1.75426 19.5996 1.91055 19.7559C2.06683 19.9122 2.27879 20 2.4998 20C2.72081 20 2.93278 19.9122 3.08906 19.7559C3.24534 19.5996 3.33313 19.3877 3.33313 19.1667C3.32621 18.9098 3.41842 18.6601 3.59065 18.4694C3.76288 18.2788 4.0019 18.1617 4.25813 18.1425C4.31545 18.1316 4.37136 18.1143 4.4248 18.0908C6.02108 19.3289 7.98383 20.0009 10.004 20.0009C12.0241 20.0009 13.9869 19.3289 15.5831 18.0908C15.6319 18.1133 15.6827 18.1312 15.7348 18.1442C15.9919 18.1617 16.2324 18.2778 16.406 18.4683C16.5795 18.6588 16.6729 18.909 16.6665 19.1667C16.6665 19.3877 16.7543 19.5996 16.9105 19.7559C17.0668 19.9122 17.2788 20 17.4998 20C17.7208 20 17.9328 19.9122 18.0891 19.7559C18.2453 19.5996 18.3331 19.3877 18.3331 19.1667C18.3514 18.6811 18.2289 18.2006 17.9803 17.7831C17.7318 17.3656 17.3678 17.0288 16.9323 16.8133ZM13.089 13.0892C12.9327 13.2454 12.7208 13.3332 12.4998 13.3332C12.2788 13.3332 12.0669 13.2454 11.9106 13.0892L9.41063 10.5892C9.25434 10.4329 9.16651 10.221 9.16647 10V5.83333C9.16647 5.61232 9.25426 5.40036 9.41055 5.24408C9.56683 5.0878 9.77879 5 9.9998 5C10.2208 5 10.4328 5.0878 10.5891 5.24408C10.7453 5.40036 10.8331 5.61232 10.8331 5.83333V9.655L13.089 11.9108C13.2452 12.0671 13.333 12.279 13.333 12.5C13.333 12.721 13.2452 12.9329 13.089 13.0892Z"></path>
  </symbol>
  <symbol fill="currentcolor" xmlns="http://www.w3.org/2000/svg" viewBox="0 0 16 17" id="stopwatch">
    <path d="M13.8212 3.19467C14.0926 3.29021 14.3788 3.33716 14.6665 3.33333C14.8433 3.33333 15.0129 3.2631 15.1379 3.13807C15.2629 3.01305 15.3332 2.84348 15.3332 2.66667C15.3332 2.48986 15.2629 2.32029 15.1379 2.19526C15.0129 2.07024 14.8433 2 14.6665 2C14.1432 2 13.9998 1.85667 13.9998 1.33333C13.9998 1.15652 13.9296 0.986953 13.8046 0.861929C13.6796 0.736905 13.51 0.666667 13.3332 0.666667C13.1564 0.666667 12.9868 0.736905 12.8618 0.861929C12.7367 0.986953 12.6665 1.15652 12.6665 1.33333C12.6626 1.65775 12.7262 1.97944 12.8532 2.278L12.3825 2.80067C11.3011 1.98685 10.0143 1.4905 8.66651 1.36733V0.666667C8.66651 0.489856 8.59627 0.320286 8.47125 0.195262C8.34622 0.0702379 8.17665 0 7.99984 0C7.82303 0 7.65346 0.0702379 7.52844 0.195262C7.40341 0.320286 7.33317 0.489856 7.33317 0.666667V1.36733C5.98545 1.49031 4.69865 1.98642 3.61717 2.8L3.14651 2.278C3.27349 1.97944 3.33706 1.65775 3.33317 1.33333C3.33317 1.15652 3.26294 0.986953 3.13791 0.861929C3.01289 0.736905 2.84332 0.666667 2.66651 0.666667C2.4897 0.666667 2.32013 0.736905 2.1951 0.861929C2.07008 0.986953 1.99984 1.15652 1.99984 1.33333C1.99984 1.85667 1.85651 2 1.33317 2C1.15636 2 0.986794 2.07024 0.86177 2.19526C0.736746 2.32029 0.666508 2.48986 0.666508 2.66667C0.666508 2.84348 0.736746 3.01305 0.86177 3.13807C0.986794 3.2631 1.15636 3.33333 1.33317 3.33333C1.62091 3.33716 1.90707 3.29021 2.17851 3.19467L2.62651 3.69267C1.65517 4.73852 1.01015 6.04511 0.770561 7.4522C0.530968 8.85929 0.707214 10.3057 1.27769 11.6141C1.84816 12.9225 2.78805 14.036 3.98212 14.818C5.17618 15.6 6.5725 16.0165 7.99984 16.0165C9.42719 16.0165 10.8235 15.6 12.0176 14.818C13.2116 14.036 14.1515 12.9225 14.722 11.6141C15.2925 10.3057 15.4687 8.85929 15.2291 7.4522C14.9895 6.04511 14.3445 4.73852 13.3732 3.69267L13.8212 3.19467ZM7.99984 10C7.70658 10.001 7.42122 9.90498 7.1882 9.72692C6.95519 9.54886 6.78759 9.29874 6.71152 9.01551C6.63544 8.73229 6.65516 8.43186 6.7676 8.161C6.88004 7.89015 7.07888 7.66408 7.33317 7.518V4.66667C7.33317 4.48986 7.40341 4.32029 7.52844 4.19526C7.65346 4.07024 7.82303 4 7.99984 4C8.17665 4 8.34622 4.07024 8.47125 4.19526C8.59627 4.32029 8.66651 4.48986 8.66651 4.66667V7.518C8.9208 7.66408 9.11965 7.89015 9.23208 8.161C9.34452 8.43186 9.36424 8.73229 9.28817 9.01551C9.21209 9.29874 9.0445 9.54886 8.81148 9.72692C8.57846 9.90498 8.2931 10.001 7.99984 10Z"></path>
  </symbol>
  <symbol fill="none" xmlns="http://www.w3.org/2000/svg" viewBox="0 0 30 30" id="circle-close">
    <rect width="30" height="30" rx="15" fill="#C53434"></rect>
    <path d="M15 30C12.0333 30 9.13319 29.1203 6.66645 27.4721C4.19972 25.8238 2.27713 23.4812 1.14181 20.7403C0.00649929 17.9994 -0.290551 14.9834 0.288228 12.0737C0.867006 9.16394 2.29562 6.49119 4.39341 4.39341C6.49119 2.29562 9.16394 0.867006 12.0737 0.288228C14.9834 -0.290551 17.9994 0.00649929 20.7403 1.14181C23.4812 2.27713 25.8238 4.19972 27.4721 6.66645C29.1203 9.13319 30 12.0333 30 15C29.9957 18.9769 28.414 22.7897 25.6019 25.6019C22.7897 28.414 18.9769 29.9957 15 30ZM15 2.50001C12.5277 2.50001 10.111 3.23312 8.05538 4.60664C5.99976 5.98015 4.39761 7.93239 3.45151 10.2165C2.50542 12.5005 2.25788 15.0139 2.74019 17.4386C3.22251 19.8634 4.41302 22.0907 6.16117 23.8388C7.90933 25.587 10.1366 26.7775 12.5614 27.2598C14.9861 27.7421 17.4995 27.4946 19.7836 26.5485C22.0676 25.6024 24.0199 24.0002 25.3934 21.9446C26.7669 19.889 27.5 17.4723 27.5 15C27.4964 11.6859 26.1782 8.50861 23.8348 6.16519C21.4914 3.82178 18.3141 2.50365 15 2.50001Z" fill="#C53434"></path>
    <path d="M16.591 14.9997L19.5002 12.0875C19.6891 11.8728 19.7892 11.5943 19.78 11.3085C19.7709 11.0227 19.6533 10.7511 19.4511 10.5489C19.2489 10.3467 18.9773 10.2291 18.6915 10.2199C18.4057 10.2108 18.1272 10.3109 17.9125 10.4997L15.0002 13.409L12.0827 10.4907C11.9782 10.3862 11.8542 10.3034 11.7176 10.2468C11.5811 10.1902 11.4348 10.1611 11.287 10.1611C11.1392 10.1611 10.9929 10.1902 10.8563 10.2468C10.7198 10.3034 10.5957 10.3862 10.4912 10.4907C10.3867 10.5952 10.3038 10.7193 10.2473 10.8558C10.1907 10.9924 10.1616 11.1387 10.1616 11.2865C10.1616 11.4343 10.1907 11.5806 10.2473 11.7171C10.3038 11.8537 10.3867 11.9777 10.4912 12.0822L13.4095 14.9997L10.5002 17.9112C10.3861 18.0132 10.2941 18.1374 10.2296 18.2762C10.1652 18.415 10.1297 18.5655 10.1254 18.7185C10.1212 18.8715 10.1481 19.0237 10.2047 19.1659C10.2613 19.3081 10.3463 19.4373 10.4545 19.5455C10.5627 19.6537 10.6919 19.7387 10.8341 19.7953C10.9763 19.8519 11.1285 19.8788 11.2815 19.8745C11.4344 19.8703 11.5849 19.8348 11.7237 19.7704C11.8626 19.7059 11.9867 19.6138 12.0887 19.4997L15.0002 16.5905L17.9087 19.4997C18.1198 19.7108 18.406 19.8294 18.7045 19.8294C19.003 19.8294 19.2892 19.7108 19.5002 19.4997C19.7113 19.2887 19.8299 19.0025 19.8299 18.704C19.8299 18.4055 19.7113 18.1193 19.5002 17.9082L16.591 14.9997Z" fill="white"></path>
  </symbol>
  <symbol fill="none" xmlns="http://www.w3.org/2000/svg" viewBox="0 0 30 30" id="circle-check">
    <path d="M15 0C6.72875 0 0 6.72875 0 15C0 23.2712 6.72875 30 15 30C23.2712 30 30 23.2712 30 15C30 6.72875 23.2712 0 15 0ZM22.75 13.14L17.2175 18.5713C16.2388 19.5312 14.9788 20.01 13.7175 20.01C12.47 20.01 11.2225 19.54 10.2475 18.5987L7.87375 16.265C7.38125 15.7812 7.375 14.99 7.85875 14.4975C8.34125 14.0037 9.135 13.9975 9.62625 14.4825L11.9925 16.8088C12.9625 17.7463 14.4937 17.7412 15.4688 16.7862L21 11.3562C21.4912 10.8713 22.28 10.88 22.7675 11.3725C23.2513 11.865 23.2438 12.6562 22.75 13.14Z" fill="#25AF3D"></path>
  </symbol>
  <symbol fill="currentcolor" xmlns="http://www.w3.org/2000/svg" viewBox="0 0 16 16" id="file-text">
    <path fill-rule="evenodd" clip-rule="evenodd" d="M2.58579 1.25241C2.96086 0.87734 3.46957 0.666626 4 0.666626H9.33333C9.51014 0.666626 9.67971 0.736864 9.80474 0.861888L13.8047 4.86189C13.9298 4.98691 14 5.15648 14 5.33329V13.3333C14 13.8637 13.7893 14.3724 13.4142 14.7475C13.0391 15.1226 12.5304 15.3333 12 15.3333H4C3.46957 15.3333 2.96086 15.1226 2.58579 14.7475C2.21071 14.3724 2 13.8637 2 13.3333V2.66663C2 2.13619 2.21071 1.62749 2.58579 1.25241ZM4 1.99996C3.82319 1.99996 3.65362 2.0702 3.5286 2.19522C3.40357 2.32025 3.33333 2.48981 3.33333 2.66663V13.3333C3.33333 13.5101 3.40357 13.6797 3.5286 13.8047C3.65362 13.9297 3.82319 14 4 14H12C12.1768 14 12.3464 13.9297 12.4714 13.8047C12.5964 13.6797 12.6667 13.5101 12.6667 13.3333V5.60943L9.05719 1.99996H4Z"></path>
    <path fill-rule="evenodd" clip-rule="evenodd" d="M9.33333 0.666626C9.70152 0.666626 10 0.965103 10 1.33329V4.66663H13.3333C13.7015 4.66663 14 4.9651 14 5.33329C14 5.70148 13.7015 5.99996 13.3333 5.99996H9.33333C8.96514 5.99996 8.66667 5.70148 8.66667 5.33329V1.33329C8.66667 0.965103 8.96514 0.666626 9.33333 0.666626Z"></path>
    <path fill-rule="evenodd" clip-rule="evenodd" d="M4.66667 8.66663C4.66667 8.29844 4.96514 7.99996 5.33333 7.99996H10.6667C11.0349 7.99996 11.3333 8.29844 11.3333 8.66663C11.3333 9.03482 11.0349 9.33329 10.6667 9.33329H5.33333C4.96514 9.33329 4.66667 9.03482 4.66667 8.66663Z"></path>
    <path fill-rule="evenodd" clip-rule="evenodd" d="M4.66667 11.3333C4.66667 10.9651 4.96514 10.6666 5.33333 10.6666H10.6667C11.0349 10.6666 11.3333 10.9651 11.3333 11.3333C11.3333 11.7015 11.0349 12 10.6667 12H5.33333C4.96514 12 4.66667 11.7015 4.66667 11.3333Z"></path>
    <path fill-rule="evenodd" clip-rule="evenodd" d="M4.66667 5.99996C4.66667 5.63177 4.96514 5.33329 5.33333 5.33329H6.66667C7.03486 5.33329 7.33333 5.63177 7.33333 5.99996C7.33333 6.36815 7.03486 6.66663 6.66667 6.66663H5.33333C4.96514 6.66663 4.66667 6.36815 4.66667 5.99996Z"></path>
  </symbol>
  <symbol fill="currentcolor" xmlns="http://www.w3.org/2000/svg" viewBox="0 0 16 17" id="badget-check">
    <path d="M13.3667 10.5343C13.4073 10.2469 13.398 9.96094 13.334 9.67894C13.2913 9.48961 13.382 9.28494 13.5607 9.16961C13.8927 8.95561 14.162 8.66427 14.362 8.30427C14.552 7.96094 14.6513 7.56694 14.6493 7.17094C14.6513 6.76827 14.552 6.37427 14.362 6.03094C14.1627 5.67094 13.8927 5.37961 13.5607 5.16561C13.382 5.05027 13.2907 4.84627 13.334 4.65561C13.4233 4.26027 13.41 3.85627 13.2947 3.45294C13.0747 2.68761 12.4633 2.07627 11.6973 1.85561C11.2933 1.74094 10.8893 1.72827 10.4953 1.81694C10.304 1.85627 10.1013 1.76827 9.986 1.58961C9.772 1.25761 9.48133 0.988274 9.12133 0.788274C8.42533 0.40294 7.55933 0.402273 6.86267 0.788274C6.504 0.987607 6.21333 1.25694 5.99933 1.58894C5.884 1.76761 5.682 1.85894 5.48933 1.81561C5.096 1.72761 4.69133 1.74027 4.28667 1.85561C3.52133 2.07494 2.90933 2.68694 2.69067 3.45161C2.57467 3.85561 2.56133 4.26094 2.65067 4.65561C2.69333 4.84494 2.60267 5.04961 2.424 5.16494C2.09133 5.37961 1.822 5.67027 1.622 6.03027C1.432 6.37361 1.33267 6.76761 1.33467 7.16361C1.33267 7.56627 1.432 7.96027 1.62267 8.30427C1.822 8.66361 2.092 8.95427 2.424 9.16827C2.60267 9.28427 2.694 9.48827 2.65067 9.67827C2.58533 9.96427 2.57667 10.2556 2.61933 10.5476L0 13.1669H3.33333V16.5003L6.52933 13.3043C6.636 13.3889 6.74 13.4769 6.86333 13.5456C7.21133 13.7383 7.602 13.8349 7.992 13.8349C8.382 13.8349 8.77333 13.7383 9.122 13.5449C9.24867 13.4749 9.35533 13.3856 9.464 13.2983L12.6667 16.5009V13.1676H16L13.3667 10.5343ZM8.44267 8.77627C8.19067 9.02827 7.856 9.16694 7.5 9.16694C7.144 9.16694 6.80933 9.02827 6.55733 8.77627L4.89733 7.11627L5.84 6.17361L7.5 7.83361L10.2547 5.07894L11.1973 6.02161L8.44267 8.77627Z"></path>
  </symbol>
  <symbol fill="currentcolor" xmlns="http://www.w3.org/2000/svg" viewBox="0 0 20 20" id="slack">
    <path d="M4.21083 12.6314C4.21083 13.7939 3.26833 14.7364 2.10583 14.7364C0.9425 14.7364 0 13.7939 0 12.6314C0 11.4689 0.9425 10.5264 2.105 10.5264H4.21L4.21083 12.6314Z"></path>
    <path d="M5.26367 12.6314C5.26367 11.4689 6.20617 10.5264 7.36867 10.5264C8.53117 10.5264 9.47367 11.4689 9.47367 12.6314V17.8947C9.47367 19.0572 8.53117 19.9997 7.36867 19.9997C6.20617 19.9997 5.26367 19.0572 5.26367 17.8947V12.6314Z"></path>
    <path d="M7.36867 4.21083C6.20617 4.21083 5.26367 3.26833 5.26367 2.10583C5.26367 0.9425 6.20617 0 7.36867 0C8.53117 0 9.47367 0.9425 9.47367 2.105V4.21L7.36867 4.21083Z"></path>
    <path d="M7.36833 5.26367C8.53083 5.26367 9.47333 6.20617 9.47333 7.36867C9.47333 8.53117 8.53083 9.47367 7.36833 9.47367H2.105C0.9425 9.47367 0 8.53117 0 7.36867C0 6.20617 0.9425 5.26367 2.105 5.26367H7.36833Z"></path>
    <path d="M15.7891 7.36867C15.7891 6.20617 16.7316 5.26367 17.8941 5.26367C19.0574 5.26367 19.9999 6.20617 19.9999 7.36867C19.9999 8.53117 19.0574 9.47367 17.8949 9.47367H15.7899L15.7891 7.36867Z"></path>
    <path d="M14.7364 7.36833C14.7364 8.53083 13.7939 9.47333 12.6314 9.47333C11.4689 9.47333 10.5264 8.53083 10.5264 7.36833V2.105C10.5264 0.9425 11.4689 0 12.6314 0C13.7939 0 14.7364 0.9425 14.7364 2.105V7.36833Z"></path>
    <path d="M12.6314 15.7888C13.7939 15.7888 14.7364 16.7313 14.7364 17.8938C14.7364 19.0563 13.7939 19.9988 12.6314 19.9988C11.4689 19.9988 10.5264 19.0563 10.5264 17.8938V15.7888H12.6314Z"></path>
    <path d="M12.6314 14.7364C11.4689 14.7364 10.5264 13.7939 10.5264 12.6314C10.5264 11.4689 11.4689 10.5264 12.6314 10.5264H17.8947C19.0572 10.5264 19.9997 11.4689 19.9997 12.6314C19.9997 13.7939 19.0572 14.7364 17.8947 14.7364H12.6314Z"></path>
  </symbol>
  <symbol fill="currentcolor" xmlns="http://www.w3.org/2000/svg" viewBox="0 0 20 20" id="link">
    <path d="M6.57966 13.4197C6.09133 12.9322 6.09133 12.1397 6.57966 11.6522C7.068 11.1638 7.85883 11.1638 8.34716 11.6522C9.45216 12.7572 11.3805 12.758 12.4855 11.6522L16.643 7.49466C17.7838 6.35383 17.7838 4.49716 16.643 3.35633C15.5022 2.21549 13.6455 2.21549 12.5047 3.35633C12.0163 3.84466 11.2255 3.84466 10.7372 3.35633C10.2488 2.86883 10.2488 2.07633 10.7372 1.58883C12.8522 -0.527005 16.2955 -0.527005 18.4105 1.58883C20.5263 3.70466 20.5263 7.14633 18.4105 9.26216L14.253 13.4197C13.1947 14.478 11.8055 15.0063 10.4163 15.0063C9.02716 15.0063 7.63716 14.4772 6.57966 13.4197ZM5.42633 19.9972C6.8155 19.9972 8.20466 19.468 9.263 18.4105C9.75133 17.923 9.75133 17.1305 9.263 16.643C8.77466 16.1547 7.98383 16.1547 7.4955 16.643C6.35383 17.7847 4.49716 17.7838 3.35716 16.643C2.21633 15.5022 2.21633 13.6455 3.35716 12.5047L7.49133 8.37049C8.63299 7.22883 10.4897 7.22883 11.6297 8.37049C12.118 8.85883 12.9088 8.85883 13.3972 8.37049C13.8855 7.88299 13.8855 7.0905 13.3972 6.60299C11.2813 4.48716 7.83966 4.48716 5.72383 6.60299L1.58883 10.7372C-0.527005 12.853 -0.527005 16.2947 1.58883 18.4105C2.64716 19.4688 4.03716 19.9972 5.42633 19.9972Z"></path>
  </symbol>
  <symbol fill="currentcolor" xmlns="http://www.w3.org/2000/svg" viewBox="0 0 20 20" id="skype">
    <path d="M10.0404 16.0192C6.71794 16.0192 5.20044 14.3267 5.20044 13.085C5.19961 12.7892 5.32127 12.5059 5.53627 12.3017C5.75127 12.0984 6.04044 11.9917 6.33627 12.0084C7.75877 12.0084 7.38627 14.1417 10.0404 14.1417C11.3971 14.1417 12.1938 13.325 12.1938 12.5575C12.1938 12.0967 11.9304 11.57 11.0346 11.3592L8.07127 10.6117C5.69044 10.0059 5.27544 8.68252 5.27544 7.45419C5.27544 4.90585 7.60627 3.98335 9.82627 3.98335C11.8713 3.98335 14.3013 5.11252 14.3013 6.64085C14.3013 7.29919 13.7513 7.65169 13.1129 7.65169C11.8979 7.65169 12.1021 5.94585 9.65877 5.94585C8.44377 5.94585 7.80461 6.51585 7.80461 7.31252C7.80461 8.10918 8.74961 8.37919 9.57961 8.56085L11.7663 9.05502C14.1638 9.59502 14.8021 11.0009 14.8021 12.3475C14.8021 14.4184 13.1988 16.0192 10.0379 16.0192M19.2138 11.6367C19.3088 11.0934 19.3563 10.5425 19.3554 9.99002C19.3671 7.21752 18.1488 4.58335 16.0296 2.79669C13.9104 1.01002 11.1079 0.254185 8.37711 0.734185C7.53794 0.250852 6.58627 -0.00248167 5.61794 1.83255e-05C3.63044 0.0125183 1.79794 1.07752 0.804607 2.79919C-0.189559 4.52085 -0.195393 6.64002 0.787941 8.36752C0.239607 11.3825 1.20044 14.475 3.36127 16.6475C5.52211 18.82 8.60961 19.7984 11.6271 19.2659C12.4654 19.7484 13.4163 20.0017 14.3829 20C16.3696 19.9875 18.2004 18.9225 19.1938 17.2017C20.1871 15.4809 20.1954 13.3634 19.2138 11.6367Z"></path>
  </symbol>
  <symbol fill="currentcolor" xmlns="http://www.w3.org/2000/svg" viewBox="0 0 20 20" id="lock">
    <path d="M15.8337 7.02V5.83333C15.8337 4.28624 15.2191 2.80251 14.1251 1.70854C13.0312 0.614582 11.5474 0 10.0003 0C8.45323 0 6.9695 0.614582 5.87554 1.70854C4.78157 2.80251 4.16699 4.28624 4.16699 5.83333V7.02C3.42479 7.34392 2.79307 7.8771 2.34907 8.55434C1.90508 9.23158 1.66806 10.0235 1.66699 10.8333V15.8333C1.66832 16.938 2.10773 17.997 2.88884 18.7782C3.66996 19.5593 4.729 19.9987 5.83366 20H14.167C15.2717 19.9987 16.3307 19.5593 17.1118 18.7782C17.8929 17.997 18.3323 16.938 18.3337 15.8333V10.8333C18.3326 10.0235 18.0956 9.23158 17.6516 8.55434C17.2076 7.8771 16.5759 7.34392 15.8337 7.02ZM5.83366 5.83333C5.83366 4.72826 6.27265 3.66846 7.05405 2.88705C7.83545 2.10565 8.89526 1.66667 10.0003 1.66667C11.1054 1.66667 12.1652 2.10565 12.9466 2.88705C13.728 3.66846 14.167 4.72826 14.167 5.83333V6.66667H5.83366V5.83333ZM16.667 15.8333C16.667 16.4964 16.4036 17.1323 15.9348 17.6011C15.4659 18.0699 14.83 18.3333 14.167 18.3333H5.83366C5.17062 18.3333 4.53473 18.0699 4.06589 17.6011C3.59705 17.1323 3.33366 16.4964 3.33366 15.8333V10.8333C3.33366 10.1703 3.59705 9.53441 4.06589 9.06557C4.53473 8.59672 5.17062 8.33333 5.83366 8.33333H14.167C14.83 8.33333 15.4659 8.59672 15.9348 9.06557C16.4036 9.53441 16.667 10.1703 16.667 10.8333V15.8333Z"></path>
    <path d="M10.0003 11.667C9.77931 11.667 9.56735 11.7548 9.41107 11.9111C9.25479 12.0674 9.16699 12.2793 9.16699 12.5003V14.167C9.16699 14.388 9.25479 14.6 9.41107 14.7562C9.56735 14.9125 9.77931 15.0003 10.0003 15.0003C10.2213 15.0003 10.4333 14.9125 10.5896 14.7562C10.7459 14.6 10.8337 14.388 10.8337 14.167V12.5003C10.8337 12.2793 10.7459 12.0674 10.5896 11.9111C10.4333 11.7548 10.2213 11.667 10.0003 11.667Z"></path>
  </symbol>
</svg>