<svg>
  <symbol fill="none" xmlns="http://www.w3.org/2000/svg" viewBox="0 0 9 14" id="drag">
    <circle cx="2" cy="2" r="1.5" fill="#8E8E8E"></circle>
    <circle cx="2" cy="7" r="1.5" fill="#8E8E8E"></circle>
    <circle cx="2" cy="12" r="1.5" fill="#8E8E8E"></circle>
    <circle cx="7" cy="2" r="1.5" fill="#8E8E8E"></circle>
    <circle cx="7" cy="7" r="1.5" fill="#8E8E8E"></circle>
    <circle cx="7" cy="12" r="1.5" fill="#8E8E8E"></circle>
  </symbol>
  <symbol fill="none" xmlns="http://www.w3.org/2000/svg" viewBox="0 0 13 12" id="trash">
    <path d="M2.49437 10.875C2.5389 11.5758 3.00296 12 3.71312 12H9.235C10.0436 12 10.4702 11.5852 10.5194 10.7812C10.6506 8.61563 10.9694 3.33516 10.9928 2.90391H2.02093C2.02093 2.99766 2.335 8.33906 2.49437 10.875ZM10.9834 0.771094C10.3483 0.766406 9.71546 0.761719 9.08265 0.773438C9.04515 0.3375 8.67953 0 8.24124 0H4.75843C4.32015 0 3.95453 0.3375 3.91937 0.773438C3.26781 0.761719 2.6139 0.766406 1.96234 0.771094C1.62015 0.775781 1.37171 0.965625 1.28968 1.26562C1.14671 1.78828 1.46312 2.21953 2.00453 2.22188C3.50687 2.22656 5.00687 2.22422 6.50687 2.22422H10.9787C11.4639 2.22422 11.7428 1.95234 11.7452 1.5C11.7475 1.04766 11.4662 0.773438 10.9834 0.771094Z" fill="#86888D"></path>
  </symbol>
  <symbol fill="none" xmlns="http://www.w3.org/2000/svg" viewBox="0 0 12 12" id="help">
    <path d="M6 0C4.81332 0 3.65328 0.351894 2.66658 1.01118C1.67989 1.67047 0.910851 2.60754 0.456726 3.7039C0.00259972 4.80026 -0.11622 6.00666 0.115291 7.17054C0.346802 8.33443 0.918247 9.40353 1.75736 10.2426C2.59648 11.0818 3.66558 11.6532 4.82946 11.8847C5.99335 12.1162 7.19975 11.9974 8.2961 11.5433C9.39246 11.0892 10.3295 10.3201 10.9888 9.33342C11.6481 8.34673 12 7.18669 12 6C11.9983 4.40923 11.3656 2.88411 10.2407 1.75926C9.1159 0.634414 7.59077 0.00172054 6 0ZM6 11C5.0111 11 4.0444 10.7068 3.22215 10.1573C2.39991 9.60794 1.75904 8.82705 1.38061 7.91342C1.00217 6.99979 0.90315 5.99445 1.09608 5.02455C1.289 4.05464 1.76521 3.16373 2.46447 2.46447C3.16373 1.7652 4.05465 1.289 5.02455 1.09607C5.99446 0.903148 6.99979 1.00216 7.91342 1.3806C8.82705 1.75904 9.60794 2.3999 10.1574 3.22215C10.7068 4.0444 11 5.01109 11 6C10.9985 7.32564 10.4713 8.59656 9.53393 9.53393C8.59656 10.4713 7.32564 10.9985 6 11Z" fill="#A0A0A0"></path>
    <path d="M6 5H5.5C5.36739 5 5.24021 5.05268 5.14645 5.14645C5.05268 5.24021 5 5.36739 5 5.5C5 5.63261 5.05268 5.75979 5.14645 5.85355C5.24021 5.94732 5.36739 6 5.5 6H6V9C6 9.13261 6.05268 9.25979 6.14645 9.35355C6.24021 9.44732 6.36739 9.5 6.5 9.5C6.63261 9.5 6.75979 9.44732 6.85355 9.35355C6.94732 9.25979 7 9.13261 7 9V6C7 5.73478 6.89464 5.48043 6.70711 5.29289C6.51957 5.10536 6.26522 5 6 5Z" fill="#A0A0A0"></path>
    <path d="M6 4C6.41421 4 6.75 3.66421 6.75 3.25C6.75 2.83579 6.41421 2.5 6 2.5C5.58579 2.5 5.25 2.83579 5.25 3.25C5.25 3.66421 5.58579 4 6 4Z" fill="#A0A0A0"></path>
  </symbol>
  <symbol fill="none" xmlns="http://www.w3.org/2000/svg" viewBox="0 0 18 18" id="down-arrow">
    <path fill-rule="evenodd" clip-rule="evenodd" d="M9 10.7929L12.2929 7.5L13 8.20711L9 12.2071L5 8.20711L5.70711 7.5L9 10.7929Z" fill="#86888D"></path>
  </symbol>
  <symbol fill="none" xmlns="http://www.w3.org/2000/svg" viewBox="0 0 18 18" id="down-arrow2">
    <path fill-rule="evenodd" clip-rule="evenodd" d="M9 10.7929L12.2929 7.5L13 8.20711L9 12.2071L5 8.20711L5.70711 7.5L9 10.7929Z" fill="#0073AA"></path>
  </symbol>
  <symbol fill="none" xmlns="http://www.w3.org/2000/svg" viewBox="0 0 12 12" id="edit">
    <path d="M9.4065 5C9.561 5 9.707 4.9285 9.8015 4.8065C9.896 4.6845 9.929 4.5255 9.891 4.376C9.7355 3.7675 9.4185 3.2115 8.9745 2.7675L7.232 1.025C6.571 0.364 5.692 0 4.757 0H2.4995C1.1215 0 0 1.1215 0 2.5V9.5C0 10.8785 1.1215 12 2.5 12H4C4.276 12 4.5 11.776 4.5 11.5C4.5 11.224 4.276 11 4 11H2.5C1.673 11 1 10.327 1 9.5V2.5C1 1.673 1.673 1 2.5 1H4.7575C4.839 1 4.92 1.004 5 1.0115V3.5C5 4.327 5.673 5 6.5 5H9.4065ZM6 3.5V1.3295C6.1895 1.4385 6.366 1.5735 6.525 1.7325L8.2675 3.475C8.4245 3.632 8.559 3.809 8.669 4H6.5C6.2245 4 6 3.7755 6 3.5ZM11.561 5.9395C10.994 5.3725 10.006 5.3725 9.4395 5.9395L6.086 9.293C5.7085 9.6705 5.5 10.173 5.5 10.7075V11.5005C5.5 11.7765 5.724 12.0005 6 12.0005H6.793C7.3275 12.0005 7.8295 11.792 8.207 11.4145L11.5605 8.061C11.844 7.7775 12 7.401 12 7C12 6.599 11.844 6.2225 11.561 5.9395ZM10.8535 7.3535L7.4995 10.707C7.311 10.896 7.06 11 6.7925 11H6.4995V10.707C6.4995 10.44 6.6035 10.189 6.7925 10L10.1465 6.6465C10.335 6.4575 10.6645 6.4575 10.8535 6.6465C10.948 6.7405 11 6.866 11 7C11 7.134 10.948 7.259 10.8535 7.3535Z" fill="#0073AA"></path>
  </symbol>
  <symbol fill="none" xmlns="http://www.w3.org/2000/svg" viewBox="0 0 12 12" id="duplicate">
    <path d="M10.5775 1.636L9.43547 0.4565C9.29527 0.312483 9.12767 0.19792 8.94254 0.119531C8.75743 0.0411412 8.55853 0.000503216 8.3575 0H6C5.4239 0.000727262 4.86566 0.200045 4.41938 0.564359C3.97309 0.928673 3.66605 1.43571 3.55 2H3.5C2.8372 2.00079 2.20178 2.26444 1.73311 2.73311C1.26444 3.20178 1.0008 3.8372 1 4.5V9.5C1.0008 10.1628 1.26444 10.7982 1.73311 11.2669C2.20178 11.7356 2.8372 11.9992 3.5 12H6.5C7.1628 11.9992 7.79822 11.7356 8.26689 11.2669C8.73556 10.7982 8.99921 10.1628 9 9.5V9.45C9.56427 9.33395 10.0714 9.02691 10.4357 8.58063C10.8 8.13434 10.9993 7.5761 11 7V2.68C11.0008 2.29021 10.8492 1.91556 10.5775 1.636ZM6.5 11H3.5C3.10218 11 2.72065 10.842 2.43934 10.5607C2.15804 10.2794 2 9.89782 2 9.5V4.5C2 4.10218 2.15804 3.72064 2.43934 3.43934C2.72065 3.15804 3.10218 3 3.5 3V7C3.5008 7.6628 3.76444 8.29822 4.23311 8.76689C4.70178 9.23556 5.3372 9.49921 6 9.5H8C8 9.89782 7.84197 10.2794 7.56066 10.5607C7.27936 10.842 6.89783 11 6.5 11ZM8.5 8.5H6C5.60218 8.5 5.22065 8.34196 4.93934 8.06066C4.65804 7.77936 4.5 7.39782 4.5 7V2.5C4.5 2.10218 4.65804 1.72064 4.93934 1.43934C5.22065 1.15804 5.60218 1 6 1H8V2C8 2.26522 8.10536 2.51957 8.2929 2.70711C8.48043 2.89464 8.73479 3 9 3H9.99997V7C9.99997 7.39782 9.84197 7.77936 9.56067 8.06066C9.27937 8.34196 8.89783 8.5 8.5 8.5Z" fill="#0073AA"></path>
  </symbol>
  <symbol fill="none" xmlns="http://www.w3.org/2000/svg" viewBox="0 0 12 12" id="delete">
    <path d="M1.99486 10.875C2.03939 11.5758 2.50345 12 3.21361 12H8.73548C9.54406 12 9.97066 11.5852 10.0199 10.7812C10.1511 8.61563 10.4699 3.33516 10.4933 2.90391H1.52142C1.52142 2.99766 1.83548 8.33906 1.99486 10.875ZM10.484 0.771094C9.84876 0.766406 9.21596 0.761719 8.58314 0.773438C8.54564 0.3375 8.18001 0 7.74173 0H4.25892C3.82064 0 3.45501 0.3375 3.41986 0.773438C2.7683 0.761719 2.11439 0.766406 1.46283 0.771094C1.12064 0.775781 0.872202 0.965625 0.790172 1.26562C0.647202 1.78828 0.963611 2.21953 1.50501 2.22188C3.00736 2.22656 4.50736 2.22422 6.00736 2.22422H10.4793C10.9644 2.22422 11.2433 1.95234 11.2457 1.5C11.248 1.04766 10.9668 0.773438 10.484 0.771094Z" fill="#A53934"></path>
  </symbol>
  <symbol fill="none" xmlns="http://www.w3.org/2000/svg" viewBox="0 0 16 16" id="clip">
    <path d="M15.3005 6.39947C15.1755 6.27449 15.0059 6.20428 14.8292 6.20428C14.6524 6.20428 14.4829 6.27449 14.3578 6.39947L7.0965 13.6921C6.78698 14.0017 6.41951 14.2473 6.01508 14.4148C5.61065 14.5824 5.17717 14.6686 4.73941 14.6687C3.8553 14.6687 3.00737 14.3176 2.38217 13.6925C1.75697 13.0673 1.4057 12.2195 1.40563 11.3354C1.40557 10.4513 1.75672 9.60334 2.38184 8.97814L9.4145 1.9168C9.79056 1.54673 10.2976 1.34025 10.8252 1.34234C11.3528 1.34442 11.8582 1.55491 12.2314 1.92794C12.6045 2.30098 12.8151 2.80634 12.8173 3.33394C12.8195 3.86155 12.6132 4.36866 12.2432 4.7448L5.2105 11.8061C5.08367 11.9276 4.91481 11.9955 4.73917 11.9955C4.56353 11.9955 4.39467 11.9276 4.26784 11.8061C4.14286 11.6811 4.07265 11.5116 4.07265 11.3348C4.07265 11.158 4.14286 10.9885 4.26784 10.8635L10.5292 4.57347C10.6506 4.44774 10.7178 4.27933 10.7163 4.10454C10.7148 3.92974 10.6447 3.76253 10.521 3.63893C10.3974 3.51532 10.2302 3.44521 10.0554 3.44369C9.88064 3.44217 9.71224 3.50937 9.5865 3.6308L3.32517 9.9208C3.13942 10.1065 2.99207 10.327 2.89154 10.5697C2.79101 10.8124 2.73926 11.0725 2.73926 11.3351C2.73926 11.5978 2.79101 11.8579 2.89154 12.1006C2.99207 12.3432 3.13942 12.5637 3.32517 12.7495C3.70625 13.1131 4.21276 13.316 4.7395 13.316C5.26625 13.316 5.77276 13.1131 6.15384 12.7495L13.1858 5.68747C13.7978 5.05967 14.1379 4.21604 14.1322 3.33932C14.1266 2.4626 13.7758 1.62339 13.1558 1.00349C12.5358 0.383584 11.6966 0.0329027 10.8199 0.0274093C9.94313 0.021916 9.09955 0.362054 8.47184 0.974139L1.43917 8.03547C0.563956 8.91068 0.0722656 10.0977 0.0722656 11.3355C0.0722656 12.5732 0.563956 13.7602 1.43917 14.6355C2.31438 15.5107 3.50143 16.0024 4.73917 16.0024C5.97691 16.0024 7.16396 15.5107 8.03917 14.6355L15.3005 7.3448C15.3628 7.28285 15.4122 7.2092 15.4459 7.12809C15.4797 7.04697 15.497 6.95999 15.497 6.87214C15.497 6.78429 15.4797 6.69731 15.4459 6.61619C15.4122 6.53507 15.3628 6.46142 15.3005 6.39947Z" fill="#0073AA"></path>
  </symbol>
  <symbol fill="none" xmlns="http://www.w3.org/2000/svg" viewBox="0 0 16 16" id="book-bookmark">
    <path d="M2.66634 12C2.17434 11.9993 1.69901 12.1807 1.33301 12.51V2C1.33301 0.895333 2.22834 0 3.33301 0H3.99967V12H2.66634ZM13.333 0H11.9997V7.33333L10.333 5.66667L8.66634 7.33333V0H5.33301V12H14.6663V1.33333C14.6663 0.596667 14.0697 0 13.333 0ZM1.33301 14.6667C1.33301 15.4033 1.92967 16 2.66634 16H14.6663V13.3333H2.66634C1.92967 13.3333 1.33301 13.93 1.33301 14.6667Z" fill="#0073AA"></path>
  </symbol>
  <symbol fill="none" xmlns="http://www.w3.org/2000/svg" viewBox="0 0 16 16" id="clock">
    <path d="M15.9992 2.99958C15.9992 3.17639 15.929 3.34596 15.804 3.47098C15.679 3.59601 15.5094 3.66624 15.3326 3.66624C15.1558 3.66624 14.9862 3.59601 14.8612 3.47098C14.7361 3.34596 14.6659 3.17639 14.6659 2.99958C14.6585 2.76655 14.6039 2.53745 14.5056 2.32607C14.4072 2.1147 14.267 1.92544 14.0935 1.7697C13.92 1.61396 13.7168 1.49497 13.4961 1.4199C13.2754 1.34483 13.0417 1.31524 12.8092 1.33291C12.6324 1.33291 12.4629 1.26267 12.3378 1.13765C12.2128 1.01262 12.1426 0.843057 12.1426 0.666246C12.1426 0.489435 12.2128 0.319865 12.3378 0.194841C12.4629 0.0698165 12.6324 -0.000421388 12.8092 -0.000421388C13.2167 -0.0169097 13.6233 0.0480197 14.0053 0.190568C14.3874 0.333117 14.7371 0.550421 15.0342 0.829769C15.3312 1.10911 15.5695 1.44489 15.7353 1.81746C15.901 2.19003 15.9907 2.59191 15.9992 2.99958Z" fill="#0073AA"></path>
    <path d="M1.33333 2.99958C1.34076 2.76655 1.39531 2.53745 1.49368 2.32607C1.59205 2.1147 1.73221 1.92544 1.9057 1.7697C2.0792 1.61396 2.28243 1.49497 2.50316 1.4199C2.72389 1.34483 2.95753 1.31524 3.19 1.33291C3.36681 1.33291 3.53638 1.26267 3.6614 1.13765C3.78643 1.01262 3.85667 0.843057 3.85667 0.666246C3.85667 0.489435 3.78643 0.319865 3.6614 0.194841C3.53638 0.0698165 3.36681 -0.000421388 3.19 -0.000421388C2.78257 -0.0169097 2.37595 0.0480197 1.99392 0.190568C1.61189 0.333117 1.26212 0.550421 0.965084 0.829769C0.668045 1.10911 0.429698 1.44489 0.263987 1.81746C0.0982768 2.19003 0.00853083 2.59191 0 2.99958C0 3.17639 0.0702379 3.34596 0.195262 3.47098C0.320286 3.59601 0.489856 3.66624 0.666667 3.66624C0.843478 3.66624 1.01305 3.59601 1.13807 3.47098C1.2631 3.34596 1.33333 3.17639 1.33333 2.99958Z" fill="#0073AA"></path>
    <path d="M13.546 13.4507C14.4283 12.4321 15.0123 11.1898 15.2336 9.86054C15.455 8.53131 15.3051 7.16676 14.8006 5.91725C14.296 4.66774 13.4563 3.58176 12.374 2.77895C11.2918 1.97614 10.0089 1.48766 8.6667 1.36733V0.666667C8.6667 0.489856 8.59646 0.320286 8.47144 0.195262C8.34642 0.0702379 8.17685 0 8.00004 0C7.82323 0 7.65366 0.0702379 7.52863 0.195262C7.40361 0.320286 7.33337 0.489856 7.33337 0.666667V1.36733C5.99121 1.48766 4.70832 1.97614 3.62603 2.77895C2.54374 3.58176 1.70405 4.66774 1.19949 5.91725C0.694931 7.16676 0.545074 8.53131 0.766432 9.86054C0.98779 11.1898 1.57177 12.4321 2.45404 13.4507C2.10562 13.623 1.81446 13.8925 1.61563 14.2265C1.4168 14.5605 1.31878 14.9449 1.33337 15.3333C1.33337 15.5101 1.40361 15.6797 1.52863 15.8047C1.65366 15.9298 1.82322 16 2.00004 16C2.17685 16 2.34642 15.9298 2.47144 15.8047C2.59646 15.6797 2.6667 15.5101 2.6667 15.3333C2.66116 15.1278 2.73493 14.9281 2.87271 14.7756C3.0105 14.623 3.20171 14.5293 3.4067 14.514C3.45256 14.5053 3.49729 14.4914 3.54004 14.4727C4.81706 15.4631 6.38726 16.0007 8.00337 16.0007C9.61948 16.0007 11.1897 15.4631 12.4667 14.4727C12.5057 14.4906 12.5463 14.5049 12.588 14.5153C12.7937 14.5294 12.9861 14.6223 13.125 14.7747C13.2638 14.9271 13.3385 15.1272 13.3334 15.3333C13.3334 15.5101 13.4036 15.6797 13.5286 15.8047C13.6537 15.9298 13.8232 16 14 16C14.1768 16 14.3464 15.9298 14.4714 15.8047C14.5965 15.6797 14.6667 15.5101 14.6667 15.3333C14.6813 14.9449 14.5833 14.5605 14.3844 14.2265C14.1856 13.8925 13.8945 13.623 13.546 13.4507ZM10.4714 10.4713C10.3464 10.5963 10.1768 10.6665 10 10.6665C9.82326 10.6665 9.65372 10.5963 9.5287 10.4713L7.5287 8.47133C7.40367 8.34634 7.33341 8.1768 7.33337 8V4.66667C7.33337 4.48986 7.40361 4.32029 7.52863 4.19526C7.65366 4.07024 7.82323 4 8.00004 4C8.17685 4 8.34642 4.07024 8.47144 4.19526C8.59646 4.32029 8.6667 4.48986 8.6667 4.66667V7.724L10.4714 9.52867C10.5963 9.65369 10.6666 9.82323 10.6666 10C10.6666 10.1768 10.5963 10.3463 10.4714 10.4713Z" fill="#0073AA"></path>
  </symbol>
  <symbol fill="none" xmlns="http://www.w3.org/2000/svg" viewBox="0 0 12 12" id="file-edit">
    <path d="M6 3.5V0.23C6.4565 0.403 6.8765 0.6695 7.2325 1.025L8.9745 2.768C9.3305 3.1235 9.597 3.5435 9.77 4H6.5C6.224 4 6 3.7755 6 3.5ZM6.635 9.74C6.2285 10.1465 6 10.6975 6 11.2725V12H6.7275C7.3025 12 7.8535 11.7715 8.26 11.365L11.6635 7.9615C12.112 7.513 12.112 6.785 11.6635 6.3365C11.215 5.888 10.487 5.888 10.0385 6.3365L6.635 9.74ZM5 11.2725C5 10.4265 5.3295 9.631 5.9275 9.033L9.331 5.6295C9.5255 5.435 9.752 5.2855 9.9965 5.179C9.9945 5.119 9.992 5.0595 9.988 4.9995H6.5C5.673 4.9995 5 4.3265 5 3.4995V0.012C4.9195 0.0065 4.839 0 4.7575 0H2.5C1.1215 0 0 1.1215 0 2.5V9.5C0 10.8785 1.1215 12 2.5 12H5V11.2725Z" fill="#0073AA"></path>
  </symbol>
  <symbol fill="none" xmlns="http://www.w3.org/2000/svg" viewBox="0 0 12 12" id="eye">
    <path d="M11.6334 4.70321C11.1822 3.96434 10.613 3.30435 9.94854 2.74944L11.348 1.34997C11.5398 1.15141 11.5343 0.835004 11.3357 0.643239C11.142 0.45616 10.8349 0.45616 10.6413 0.643239L9.11932 2.16716C8.17587 1.60679 7.09728 1.31471 5.99999 1.32249C2.90563 1.32249 1.14228 3.44071 0.366579 4.70324C-0.122193 5.4938 -0.122193 6.49271 0.366579 7.28329C0.817794 8.02216 1.38695 8.68215 2.05146 9.23706L0.651989 10.6365C0.453429 10.8283 0.447924 11.1447 0.639688 11.3433C0.831453 11.5418 1.14788 11.5473 1.34642 11.3556C1.35059 11.3515 1.35469 11.3474 1.35872 11.3433L2.88414 9.81784C3.82643 10.3781 4.90373 10.6707 5.99999 10.664C9.09435 10.664 10.8577 8.5458 11.6334 7.28326C12.1222 6.49271 12.1222 5.4938 11.6334 4.70321ZM3.00112 5.99325C2.99829 4.33976 4.33638 2.99706 5.98987 2.99422C6.61549 2.99315 7.22574 3.1881 7.73487 3.55167L7.00914 4.2774C6.70447 4.09367 6.35578 3.99574 6.00001 3.994C4.89586 3.994 4.00076 4.8891 4.00076 5.99325C4.00249 6.34902 4.10043 6.69771 4.28416 7.00238L3.55843 7.72811C3.19603 7.22221 3.00115 6.61554 3.00112 5.99325ZM6.00001 8.99214C5.37772 8.99212 4.77105 8.79723 4.26516 8.43484L4.99089 7.70911C5.29555 7.89284 5.64425 7.99077 6.00001 7.9925C7.10416 7.9925 7.99926 7.0974 7.99926 5.99325C7.99753 5.63748 7.8996 5.28879 7.71587 4.98413L8.4416 4.2584C9.40248 5.60401 9.09062 7.47381 7.74501 8.4347C7.23588 8.79826 6.62563 8.99322 6.00001 8.99214Z" fill="#0073AA"></path>
  </symbol>
  <symbol fill="none" xmlns="http://www.w3.org/2000/svg" viewBox="0 0 8 8" id="plus-icon">
    <path d="M7.33333 3.33333H4.66667V0.666667C4.66667 0.489856 4.59643 0.320287 4.4714 0.195262C4.34638 0.070238 4.17681 0 4 0C3.82319 0 3.65362 0.070238 3.5286 0.195262C3.40357 0.320287 3.33333 0.489856 3.33333 0.666667V3.33333H0.666667C0.489856 3.33333 0.320287 3.40357 0.195262 3.5286C0.070238 3.65362 0 3.82319 0 4C0 4.17681 0.070238 4.34638 0.195262 4.4714C0.320287 4.59643 0.489856 4.66667 0.666667 4.66667H3.33333V7.33333C3.33333 7.51014 3.40357 7.67971 3.5286 7.80474C3.65362 7.92976 3.82319 8 4 8C4.17681 8 4.34638 7.92976 4.4714 7.80474C4.59643 7.67971 4.66667 7.51014 4.66667 7.33333V4.66667H7.33333C7.51014 4.66667 7.67971 4.59643 7.80474 4.4714C7.92976 4.34638 8 4.17681 8 4C8 3.82319 7.92976 3.65362 7.80474 3.5286C7.67971 3.40357 7.51014 3.33333 7.33333 3.33333Z" fill="#8E8E8E"></path>
  </symbol>
  <symbol fill="none" xmlns="http://www.w3.org/2000/svg" viewBox="0 0 24 24" id="download">
    <path d="M4 17V19C4 19.5304 4.21071 20.0391 4.58579 20.4142C4.96086 20.7893 5.46957 21 6 21H18C18.5304 21 19.0391 20.7893 19.4142 20.4142C19.7893 20.0391 20 19.5304 20 19V17" stroke="#0073AA" stroke-width="2" stroke-linecap="round" stroke-linejoin="round"></path>
    <path d="M7 11L12 16L17 11" stroke="#0073AA" stroke-width="2" stroke-linecap="round" stroke-linejoin="round"></path>
    <path d="M12 4V16" stroke="#0073AA" stroke-width="2" stroke-linecap="round" stroke-linejoin="round"></path>
  </symbol>
  <symbol fill="none" xmlns="http://www.w3.org/2000/svg" viewBox="0 0 42 42" id="csv">
    <path d="M24.5 5.25V12.25C24.5 12.7141 24.6844 13.1592 25.0126 13.4874C25.3408 13.8156 25.7859 14 26.25 14H33.25" stroke="#0073AA" stroke-width="2" stroke-linecap="round" stroke-linejoin="round"></path>
    <path d="M8.75 21V8.75C8.75 7.82174 9.11875 6.9315 9.77513 6.27513C10.4315 5.61875 11.3217 5.25 12.25 5.25H24.5L33.25 14V21" stroke="#0073AA" stroke-width="2" stroke-linecap="round" stroke-linejoin="round"></path>
    <path d="M12.25 28.875C12.25 28.1788 11.9734 27.5111 11.4812 27.0188C10.9889 26.5266 10.3212 26.25 9.625 26.25C8.92881 26.25 8.26113 26.5266 7.76884 27.0188C7.27656 27.5111 7 28.1788 7 28.875V34.125C7 34.8212 7.27656 35.4889 7.76884 35.9812C8.26113 36.4734 8.92881 36.75 9.625 36.75C10.3212 36.75 10.9889 36.4734 11.4812 35.9812C11.9734 35.4889 12.25 34.8212 12.25 34.125" stroke="#0073AA" stroke-width="2" stroke-linecap="round" stroke-linejoin="round"></path>
    <path d="M17.5 35.4375C17.5 36.162 18.088 36.75 18.8125 36.75H21C21.4641 36.75 21.9092 36.5656 22.2374 36.2374C22.5656 35.9092 22.75 35.4641 22.75 35V33.25C22.75 32.7859 22.5656 32.3408 22.2374 32.0126C21.9092 31.6844 21.4641 31.5 21 31.5H19.25C18.7859 31.5 18.3408 31.3156 18.0126 30.9874C17.6844 30.6592 17.5 30.2141 17.5 29.75V28C17.5 27.5359 17.6844 27.0908 18.0126 26.7626C18.3408 26.4344 18.7859 26.25 19.25 26.25H21.4375C21.7856 26.25 22.1194 26.3883 22.3656 26.6344C22.6117 26.8806 22.75 27.2144 22.75 27.5625" stroke="#0073AA" stroke-width="2" stroke-linecap="round" stroke-linejoin="round"></path>
    <path d="M28 26.25L31.5 36.75L35 26.25" stroke="#0073AA" stroke-width="2" stroke-linecap="round" stroke-linejoin="round"></path>
  </symbol>
  <symbol fill="none" xmlns="http://www.w3.org/2000/svg" viewBox="0 0 14 14" id="tick">
    <path d="M2.9165 7.00016L5.83317 9.91683L11.6665 4.0835" stroke="#20B570" stroke-width="2" stroke-linecap="round" stroke-linejoin="round"></path>
  </symbol>
  <symbol fill="none" xmlns="http://www.w3.org/2000/svg" viewBox="0 0 14 14" id="error">
    <path d="M8.1665 1.75V4.08333C8.1665 4.23804 8.22796 4.38642 8.33736 4.49581C8.44675 4.60521 8.59513 4.66667 8.74984 4.66667H11.0832" stroke="#A53934" stroke-width="1.3" stroke-linecap="round" stroke-linejoin="round"></path>
    <path d="M9.9165 12.25H4.08317C3.77375 12.25 3.47701 12.1271 3.25821 11.9083C3.03942 11.6895 2.9165 11.3928 2.9165 11.0833V2.91667C2.9165 2.60725 3.03942 2.3105 3.25821 2.09171C3.47701 1.87292 3.77375 1.75 4.08317 1.75H8.1665L11.0832 4.66667V11.0833C11.0832 11.3928 10.9603 11.6895 10.7415 11.9083C10.5227 12.1271 10.2259 12.25 9.9165 12.25Z" stroke="#A53934" stroke-width="1.3" stroke-linecap="round" stroke-linejoin="round"></path>
    <path d="M7 9.9165H7.00583" stroke="#A53934" stroke-width="1.3" stroke-linecap="round" stroke-linejoin="round"></path>
    <path d="M7 6.4165V8.1665" stroke="#A53934" stroke-width="1.3" stroke-linecap="round" stroke-linejoin="round"></path>
  </symbol>
</svg>