<svg>
  <symbol xmlns="http://www.w3.org/2000/svg" viewBox="0 0 16 16" id="eye-crossed" fill="currentcolor">
    <path d="M15.514 6.27923C14.9122 5.29372 14.153 4.4134 13.2667 3.67323L15.1334 1.80657C15.2548 1.68083 15.322 1.51243 15.3205 1.33763C15.319 1.16283 15.2489 0.995625 15.1252 0.87202C15.0016 0.748415 14.8344 0.678302 14.6596 0.676783C14.4848 0.675264 14.3164 0.74246 14.1907 0.863899L12.1607 2.89657C10.9023 2.14911 9.46365 1.75954 8.00003 1.7699C3.8727 1.7699 1.5207 4.59523 0.486034 6.27923C0.166386 6.79624 -0.00292969 7.39206 -0.00292969 7.9999C-0.00292969 8.60774 0.166386 9.20356 0.486034 9.72057C1.08787 10.7061 1.84703 11.5864 2.73337 12.3266L0.866701 14.1932C0.803027 14.2547 0.752239 14.3283 0.7173 14.4096C0.682361 14.491 0.66397 14.5784 0.663201 14.667C0.662431 14.7555 0.679299 14.8433 0.71282 14.9252C0.74634 15.0071 0.795842 15.0816 0.858438 15.1442C0.921033 15.2068 0.995467 15.2563 1.0774 15.2898C1.15933 15.3233 1.24712 15.3402 1.33564 15.3394C1.42415 15.3386 1.51163 15.3202 1.59297 15.2853C1.67431 15.2504 1.74787 15.1996 1.80937 15.1359L3.84403 13.1012C5.10088 13.8486 6.53782 14.2388 8.00003 14.2299C12.1274 14.2299 14.4794 11.4046 15.514 9.72057C15.8337 9.20356 16.003 8.60774 16.003 7.9999C16.003 7.39206 15.8337 6.79624 15.514 6.27923ZM1.62203 9.02257C1.43212 8.71526 1.33153 8.36115 1.33153 7.9999C1.33153 7.63865 1.43212 7.28454 1.62203 6.97723C2.51137 5.53323 4.52137 3.10323 8.00003 3.10323C9.10688 3.09703 10.1982 3.36379 11.1774 3.8799L9.83537 5.2219C9.19532 4.79697 8.42797 4.60656 7.66352 4.683C6.89907 4.75943 6.18461 5.09799 5.64137 5.64123C5.09813 6.18448 4.75956 6.89894 4.68313 7.66339C4.6067 8.42784 4.7971 9.19519 5.22203 9.83523L3.68203 11.3752C2.86544 10.715 2.16859 9.9192 1.62203 9.02257ZM10 7.9999C10 8.53033 9.78932 9.03904 9.41425 9.41411C9.03918 9.78919 8.53047 9.9999 8.00003 9.9999C7.70304 9.99875 7.41017 9.93037 7.14337 9.7999L9.80003 7.14323C9.93051 7.41003 9.99888 7.70291 10 7.9999ZM6.00003 7.9999C6.00003 7.46947 6.21075 6.96076 6.58582 6.58569C6.96089 6.21061 7.4696 5.9999 8.00003 5.9999C8.29703 6.00105 8.5899 6.06942 8.8567 6.1999L6.20003 8.85657C6.06956 8.58977 6.00118 8.29689 6.00003 7.9999ZM14.378 9.02257C13.4887 10.4666 11.4787 12.8966 8.00003 12.8966C6.89319 12.9028 5.80188 12.636 4.8227 12.1199L6.1647 10.7779C6.80475 11.2028 7.5721 11.3932 8.33655 11.3168C9.101 11.2404 9.81546 10.9018 10.3587 10.3586C10.9019 9.81532 11.2405 9.10086 11.3169 8.33641C11.3934 7.57196 11.203 6.80461 10.778 6.16457L12.318 4.62457C13.1346 5.28475 13.8315 6.0806 14.378 6.97723C14.5679 7.28454 14.6685 7.63865 14.6685 7.9999C14.6685 8.36115 14.5679 8.71526 14.378 9.02257Z"></path>
  </symbol>
  <symbol xmlns="http://www.w3.org/2000/svg" viewBox="0 0 16 16" id="eye" fill="currentcolor">
    <path d="M15.514 6.27886C14.48 4.59486 12.128 1.76953 8.00003 1.76953C3.87203 1.76953 1.52003 4.59486 0.486034 6.27886C0.166386 6.79587 -0.00292969 7.39169 -0.00292969 7.99953C-0.00292969 8.60737 0.166386 9.20319 0.486034 9.7202C1.52003 11.4042 3.87203 14.2295 8.00003 14.2295C12.128 14.2295 14.48 11.4042 15.514 9.7202C15.8337 9.20319 16.003 8.60737 16.003 7.99953C16.003 7.39169 15.8337 6.79587 15.514 6.27886ZM14.3774 9.0222C13.4894 10.4662 11.4794 12.8962 8.00003 12.8962C4.5207 12.8962 2.5107 10.4662 1.6227 9.0222C1.43279 8.7149 1.3322 8.36078 1.3322 7.99953C1.3322 7.63828 1.43279 7.28417 1.6227 6.97686C2.5107 5.53286 4.5207 3.10286 8.00003 3.10286C11.4794 3.10286 13.4894 5.5302 14.3774 6.97686C14.5673 7.28417 14.6679 7.63828 14.6679 7.99953C14.6679 8.36078 14.5673 8.7149 14.3774 9.0222Z"></path>
    <path d="M7.99984 4.66699C7.34057 4.66699 6.6961 4.86249 6.14794 5.22876C5.59977 5.59503 5.17253 6.11563 4.92024 6.72471C4.66795 7.3338 4.60194 8.00402 4.73055 8.65063C4.85917 9.29723 5.17664 9.89117 5.64282 10.3573C6.10899 10.8235 6.70293 11.141 7.34954 11.2696C7.99614 11.3982 8.66636 11.3322 9.27545 11.0799C9.88454 10.8276 10.4051 10.4004 10.7714 9.85223C11.1377 9.30406 11.3332 8.6596 11.3332 8.00033C11.3321 7.1166 10.9806 6.26936 10.3557 5.64447C9.7308 5.01958 8.88357 4.66805 7.99984 4.66699ZM7.99984 10.0003C7.60428 10.0003 7.2176 9.88303 6.8887 9.66326C6.5598 9.4435 6.30345 9.13114 6.15208 8.76569C6.0007 8.40024 5.9611 7.99811 6.03827 7.61015C6.11544 7.22218 6.30592 6.86582 6.58562 6.58611C6.86533 6.30641 7.2217 6.11593 7.60966 6.03875C7.99762 5.96158 8.39975 6.00119 8.76521 6.15257C9.13066 6.30394 9.44302 6.56029 9.66278 6.88919C9.88254 7.21808 9.99984 7.60476 9.99984 8.00033C9.99984 8.53076 9.78913 9.03947 9.41405 9.41454C9.03898 9.78961 8.53027 10.0003 7.99984 10.0003Z"></path>
  </symbol>
  <symbol fill="currentcolor" xmlns="http://www.w3.org/2000/svg" viewBox="0 0 24 24" id="arrow-down">
    <path fill-rule="evenodd" clip-rule="evenodd" d="M11.0004 14.5316C11.2931 14.8234 11.7669 14.8234 12.0596 14.5316L15.5896 11.0116C15.8829 10.7191 15.8836 10.2442 15.5911 9.95089C15.2986 9.65758 14.8237 9.65691 14.5304 9.94939L11.53 12.9413L8.52958 9.94939C8.23627 9.65691 7.7614 9.65758 7.46892 9.95089C7.17644 10.2442 7.17711 10.7191 7.47042 11.0116L11.0004 14.5316Z"></path>
  </symbol>
  <symbol fill="currentcolor" xmlns="http://www.w3.org/2000/svg" viewBox="0 0 20 20" id="search">
    <path fill-rule="evenodd" clip-rule="evenodd" d="M9.1665 3.33366C5.94484 3.33366 3.33317 5.94533 3.33317 9.16699C3.33317 12.3887 5.94484 15.0003 9.1665 15.0003C12.3882 15.0003 14.9998 12.3887 14.9998 9.16699C14.9998 5.94533 12.3882 3.33366 9.1665 3.33366ZM1.6665 9.16699C1.6665 5.02486 5.02437 1.66699 9.1665 1.66699C13.3086 1.66699 16.6665 5.02486 16.6665 9.16699C16.6665 13.3091 13.3086 16.667 9.1665 16.667C5.02437 16.667 1.6665 13.3091 1.6665 9.16699Z"></path>
    <path fill-rule="evenodd" clip-rule="evenodd" d="M13.2856 13.2861C13.611 12.9606 14.1387 12.9606 14.4641 13.2861L18.0891 16.9111C18.4145 17.2365 18.4145 17.7641 18.0891 18.0896C17.7637 18.415 17.236 18.415 16.9106 18.0896L13.2856 14.4646C12.9601 14.1391 12.9601 13.6115 13.2856 13.2861Z"></path>
  </symbol>
  <symbol fill="none" xmlns="http://www.w3.org/2000/svg" viewBox="0 0 22 22" id="angle-circle-right">
    <path d="M0 11C0 13.1756 0.645139 15.3023 1.85383 17.1113C3.06253 18.9202 4.7805 20.3301 6.79048 21.1627C8.80047 21.9952 11.0122 22.2131 13.146 21.7886C15.2798 21.3642 17.2398 20.3166 18.7782 18.7782C20.3166 17.2398 21.3642 15.2798 21.7886 13.146C22.2131 11.0122 21.9952 8.80047 21.1627 6.79048C20.3301 4.7805 18.9202 3.06253 17.1113 1.85383C15.3023 0.645139 13.1756 0 11 0C8.08359 0.00315432 5.28753 1.16309 3.22531 3.22531C1.16309 5.28753 0.00315432 8.08359 0 11ZM14.6667 11C14.6674 11.671 14.4221 12.319 13.9773 12.8214C13.7106 13.1212 13.4512 13.4053 13.2651 13.5914L10.6764 16.225C10.5935 16.3165 10.493 16.3904 10.3809 16.4421C10.2687 16.4939 10.1473 16.5224 10.0238 16.526C9.9004 16.5297 9.7775 16.5083 9.66251 16.4633C9.54753 16.4182 9.44283 16.3504 9.35471 16.2639C9.26658 16.1774 9.19685 16.0739 9.14969 15.9598C9.10254 15.8456 9.07893 15.7232 9.08029 15.5997C9.08165 15.4762 9.10794 15.3542 9.1576 15.2412C9.20725 15.1281 9.27924 15.0262 9.36925 14.9417L11.9625 12.3017C12.1339 12.1293 12.3668 11.8727 12.6042 11.6059C12.7519 11.4385 12.8334 11.2228 12.8334 10.9995C12.8334 10.7762 12.7519 10.5606 12.6042 10.3932C12.3677 10.1273 12.1348 9.87067 11.9689 9.70383L9.36925 7.05833C9.27924 6.97378 9.20725 6.8719 9.1576 6.75883C9.10794 6.64576 9.08165 6.52382 9.08029 6.40033C9.07893 6.27684 9.10254 6.15436 9.14969 6.04022C9.19685 5.92608 9.26658 5.82265 9.35471 5.73613C9.44283 5.64962 9.54753 5.5818 9.66251 5.53675C9.7775 5.4917 9.9004 5.47035 10.0238 5.47398C10.1473 5.47761 10.2687 5.50614 10.3809 5.55787C10.493 5.6096 10.5935 5.68345 10.6764 5.775L13.2697 8.41408C13.453 8.59742 13.7097 8.87883 13.9746 9.17767C14.4208 9.67978 14.6671 10.3283 14.6667 11Z" fill="#0F5AA7"></path>
  </symbol>
  <symbol fill="currentcolor" xmlns="http://www.w3.org/2000/svg" viewBox="0 0 16 17" id="quiz">
    <path d="M16 3.49958C16 3.67639 15.9297 3.84596 15.8047 3.97098C15.6797 4.09601 15.5101 4.16625 15.3333 4.16625C15.1565 4.16625 14.9869 4.09601 14.8619 3.97098C14.7369 3.84596 14.6666 3.67639 14.6666 3.49958C14.6592 3.26655 14.6047 3.03745 14.5063 2.82608C14.4079 2.6147 14.2678 2.42544 14.0943 2.2697C13.9208 2.11396 13.7175 1.99497 13.4968 1.9199C13.2761 1.84483 13.0424 1.81524 12.81 1.83291C12.6332 1.83291 12.4636 1.76267 12.3386 1.63765C12.2135 1.51263 12.1433 1.34306 12.1433 1.16625C12.1433 0.989434 12.2135 0.819865 12.3386 0.694841C12.4636 0.569817 12.6332 0.499579 12.81 0.499579C13.2174 0.48309 13.624 0.54802 14.0061 0.690568C14.3881 0.833116 14.7379 1.05042 15.0349 1.32977C15.3319 1.60912 15.5703 1.9449 15.736 2.31747C15.9017 2.69003 15.9914 3.09191 16 3.49958Z"></path>
    <path d="M1.33333 3.49958C1.34076 3.26655 1.39531 3.03745 1.49368 2.82608C1.59205 2.6147 1.73221 2.42544 1.9057 2.2697C2.0792 2.11396 2.28243 1.99497 2.50316 1.9199C2.72389 1.84483 2.95753 1.81524 3.19 1.83291C3.36681 1.83291 3.53638 1.76267 3.6614 1.63765C3.78643 1.51263 3.85667 1.34306 3.85667 1.16625C3.85667 0.989434 3.78643 0.819865 3.6614 0.694841C3.53638 0.569817 3.36681 0.499579 3.19 0.499579C2.78257 0.48309 2.37595 0.54802 1.99392 0.690568C1.61189 0.833116 1.26212 1.05042 0.965084 1.32977C0.668045 1.60912 0.429698 1.9449 0.263987 2.31747C0.0982768 2.69003 0.00853083 3.09191 0 3.49958C0 3.67639 0.0702379 3.84596 0.195262 3.97098C0.320286 4.09601 0.489856 4.16625 0.666667 4.16625C0.843478 4.16625 1.01305 4.09601 1.13807 3.97098C1.2631 3.84596 1.33333 3.67639 1.33333 3.49958Z"></path>
    <path d="M13.546 13.9507C14.4282 12.9321 15.0122 11.6898 15.2336 10.3605C15.4549 9.03131 15.3051 7.66676 14.8005 6.41725C14.296 5.16774 13.4563 4.08176 12.374 3.27895C11.2917 2.47614 10.0088 1.98766 8.66664 1.86733V1.16667C8.66664 0.989856 8.5964 0.820286 8.47138 0.695262C8.34635 0.570238 8.17679 0.5 7.99997 0.5C7.82316 0.5 7.65359 0.570238 7.52857 0.695262C7.40355 0.820286 7.33331 0.989856 7.33331 1.16667V1.86733C5.99115 1.98766 4.70826 2.47614 3.62597 3.27895C2.54367 4.08176 1.70399 5.16774 1.19943 6.41725C0.69487 7.66676 0.545013 9.03131 0.766371 10.3605C0.987729 11.6898 1.57171 12.9321 2.45397 13.9507C2.10555 14.123 1.8144 14.3925 1.61557 14.7265C1.41674 15.0605 1.31871 15.4449 1.33331 15.8333C1.33331 16.0101 1.40355 16.1797 1.52857 16.3047C1.65359 16.4298 1.82316 16.5 1.99997 16.5C2.17679 16.5 2.34636 16.4298 2.47138 16.3047C2.5964 16.1797 2.66664 16.0101 2.66664 15.8333C2.6611 15.6278 2.73487 15.4281 2.87265 15.2756C3.01043 15.123 3.20165 15.0293 3.40664 15.014C3.4525 15.0053 3.49722 14.9914 3.53997 14.9727C4.817 15.9631 6.3872 16.5007 8.00331 16.5007C9.61942 16.5007 11.1896 15.9631 12.4666 14.9727C12.5057 14.9906 12.5463 15.0049 12.588 15.0153C12.7937 15.0294 12.986 15.1223 13.1249 15.2747C13.2638 15.4271 13.3384 15.6272 13.3333 15.8333C13.3333 16.0101 13.4035 16.1797 13.5286 16.3047C13.6536 16.4298 13.8232 16.5 14 16.5C14.1768 16.5 14.3464 16.4298 14.4714 16.3047C14.5964 16.1797 14.6666 16.0101 14.6666 15.8333C14.6812 15.4449 14.5832 15.0605 14.3844 14.7265C14.1856 14.3925 13.8944 14.123 13.546 13.9507ZM10.4713 10.9713C10.3463 11.0963 10.1768 11.1665 9.99998 11.1665C9.8232 11.1665 9.65366 11.0963 9.52864 10.9713L7.52864 8.97133C7.40361 8.84634 7.33335 8.6768 7.33331 8.5V5.16667C7.33331 4.98986 7.40355 4.82029 7.52857 4.69526C7.65359 4.57024 7.82316 4.5 7.99997 4.5C8.17679 4.5 8.34635 4.57024 8.47138 4.69526C8.5964 4.82029 8.66664 4.98986 8.66664 5.16667V8.224L10.4713 10.0287C10.5963 10.1537 10.6665 10.3232 10.6665 10.5C10.6665 10.6768 10.5963 10.8463 10.4713 10.9713Z"></path>
  </symbol>
  <symbol fill="currentcolor" xmlns="http://www.w3.org/2000/svg" viewBox="0 0 16 16" id="clock">
    <path d="M8.00016 1.33496C4.3335 1.33496 1.3335 4.33496 1.3335 8.00163C1.3335 11.6683 4.3335 14.6683 8.00016 14.6683C11.6668 14.6683 14.6668 11.6683 14.6668 8.00163C14.6668 4.33496 11.6668 1.33496 8.00016 1.33496ZM10.8002 10.8016L7.3335 8.66829V4.66829H8.3335V8.13496L11.3335 9.93496L10.8002 10.8016Z"></path>
  </symbol>
  <symbol fill="currentcolor" xmlns="http://www.w3.org/2000/svg" viewBox="0 0 17 17" id="lessons">
    <path d="M2.99972 12.5C2.50772 12.4993 2.03238 12.6807 1.66638 13.01V2.5C1.66638 1.39533 2.56172 0.5 3.66638 0.5H4.33305V12.5H2.99972ZM13.6664 0.5H12.333V7.83333L10.6664 6.16667L8.99972 7.83333V0.5H5.66638V12.5H14.9997V1.83333C14.9997 1.09667 14.403 0.5 13.6664 0.5ZM1.66638 15.1667C1.66638 15.9033 2.26305 16.5 2.99972 16.5H14.9997V13.8333H2.99972C2.26305 13.8333 1.66638 14.43 1.66638 15.1667Z"></path>
  </symbol>
  <symbol fill="currentcolor" xmlns="http://www.w3.org/2000/svg" viewBox="0 0 32 32" id="filters">
    <path fill-rule="evenodd" clip-rule="evenodd" d="M7.03537 9.94337C5.50902 7.5012 7.26475 4.33337 10.1447 4.33337H21.8554C24.7353 4.33337 26.4911 7.50116 24.9647 9.94337L22.064 14.5844C21.3687 15.697 21 16.9825 21 18.2944V25.8427C21 27.5772 19.1746 28.7053 17.6233 27.9297L13.027 25.6315C11.7847 25.0104 11 23.7408 11 22.3519V18.2944C11 16.9825 10.6313 15.697 9.93602 14.5844L7.03537 9.94337ZM10.1447 6.33337C8.83564 6.33337 8.03756 7.77328 8.73137 8.88338L11.632 13.5244C12.526 14.9548 13 16.6077 13 18.2944V22.3519C13 22.9833 13.3567 23.5603 13.9214 23.8427L18.5177 26.1408C18.7394 26.2516 19 26.0903 19 25.8427V18.2944C19 16.6077 19.474 14.9548 20.3681 13.5244L23.2687 8.88337C23.9625 7.77332 23.1645 6.33337 21.8554 6.33337H10.1447Z"></path>
  </symbol>
  <symbol fill="currentcolor" xmlns="http://www.w3.org/2000/svg" viewBox="0 0 32 32" id="cross">
    <path fill-rule="evenodd" clip-rule="evenodd" d="M7.41624 7.41622C7.97119 6.86126 8.87095 6.86126 9.42591 7.41622L16 13.9903L22.5741 7.41622C23.1291 6.86126 24.0288 6.86126 24.5838 7.41622C25.1387 7.97117 25.1387 8.87093 24.5838 9.42589L18.0097 16L24.5838 22.5741C25.1387 23.1291 25.1387 24.0288 24.5838 24.5838C24.0288 25.1387 23.1291 25.1387 22.5741 24.5838L16 18.0097L9.42589 24.5838C8.87093 25.1387 7.97117 25.1387 7.41622 24.5838C6.86126 24.0288 6.86126 23.1291 7.41622 22.5741L13.9903 16L7.41623 9.42589C6.86128 8.87093 6.86128 7.97117 7.41624 7.41622Z"></path>
  </symbol>
</svg>
