<svg width="150" height="150" viewBox="0 0 150 150" fill="none" xmlns="http://www.w3.org/2000/svg">
<path d="M145.312 75C145.312 81 137.941 85.9453 136.465 91.4766C134.941 97.1953 138.797 105.164 135.902 110.168C132.961 115.254 124.113 115.863 119.988 119.988C115.863 124.113 115.254 132.961 110.168 135.902C105.164 138.797 97.1953 134.941 91.4766 136.465C85.9453 137.941 81 145.312 75 145.312C69 145.312 64.0547 137.941 58.5234 136.465C52.8047 134.941 44.8359 138.797 39.832 135.902C34.7461 132.961 34.1367 124.113 30.0117 119.988C25.8867 115.863 17.0391 115.254 14.0977 110.168C11.2031 105.164 15.0586 97.1953 13.5352 91.4766C12.0586 85.9453 4.6875 81 4.6875 75C4.6875 69 12.0586 64.0547 13.5352 58.5234C15.0586 52.8047 11.2031 44.8359 14.0977 39.832C17.0391 34.7461 25.8867 34.1367 30.0117 30.0117C34.1367 25.8867 34.7461 17.0391 39.832 14.0977C44.8359 11.2031 52.8047 15.0586 58.5234 13.5352C64.0547 12.0586 69 4.6875 75 4.6875C81 4.6875 85.9453 12.0586 91.4766 13.5352C97.1953 15.0586 105.164 11.2031 110.168 14.0977C115.254 17.0391 115.863 25.8867 119.988 30.0117C124.113 34.1367 132.961 34.7461 135.902 39.832C138.797 44.8359 134.941 52.8047 136.465 58.5234C137.941 64.0547 145.312 69 145.312 75Z" fill="#25AF3D"/>
<path d="M95.3202 54.0467L68.5546 80.8124L54.6796 66.9491C53.2325 65.5028 51.2704 64.6904 49.2245 64.6904C47.1786 64.6904 45.2165 65.5028 43.7694 66.9491C42.3232 68.3961 41.5107 70.3583 41.5107 72.4042C41.5107 74.45 42.3232 76.4122 43.7694 77.8592L63.2343 97.3241C64.6427 98.731 66.5521 99.5212 68.5429 99.5212C70.5336 99.5212 72.443 98.731 73.8515 97.3241L106.219 64.9569C107.665 63.5098 108.477 61.5477 108.477 59.5018C108.477 57.4559 107.665 55.4938 106.219 54.0467C105.503 53.3307 104.654 52.7627 103.719 52.3751C102.784 51.9876 101.782 51.7881 100.769 51.7881C99.7573 51.7881 98.755 51.9876 97.82 52.3751C96.885 52.7627 96.0356 53.3307 95.3202 54.0467Z" fill="#FFFCEE"/>
</svg>
